<?xml version='1.0' encoding='UTF-8' standalone='no'?>
<!-- Created with Inkscape (http://www.inkscape.org/) --><svg xmlns:inkscape="http://www.inkscape.org/namespaces/inkscape" xmlns:sodipodi="http://sodipodi.sourceforge.net/DTD/sodipodi-0.dtd" xmlns="http://www.w3.org/2000/svg" xmlns:svg="http://www.w3.org/2000/svg" width="210mm" height="297mm" viewBox="0 0 210 297" version="1.1" id="svg1">
  <defs id="defs1"/>
  <g id="layer1">
    <path fill="#fa7206" opacity="1" stroke="none" d="m 55.673134,160.99921 c -2.586535,0.0381 -5.126152,-0.19241 -7.633813,-0.77882 -2.530201,-0.59167 -4.881487,-1.64258 -6.89777,-3.47084 -2.083161,-1.88892 -3.459741,-4.28739 -4.111154,-7.18656 -0.527281,-2.34671 -0.582464,-4.72501 -0.415447,-7.12049 0.233083,-3.34297 1.000704,-6.54304 2.08767,-9.66203 1.447132,-4.15247 3.326756,-8.05193 5.56778,-11.7444 2.512651,-4.14004 5.371888,-7.95982 8.634676,-11.40474 2.765008,-2.91936 5.775951,-5.47629 9.150207,-7.4886 2.462032,-1.46829 5.029518,-2.655247 7.728623,-3.476698 2.188348,-0.665997 4.417761,-1.067232 6.685952,-1.216909 2.882091,-0.19019 5.745366,-6.93e-4 8.600096,0.443178 2.464892,0.383335 4.888865,0.945835 7.225737,1.918086 1.599106,0.665293 3.124655,1.495453 4.591011,2.460673 0.289892,0.19081 0.508322,0.46107 0.642036,0.81143 0.143334,0.37555 0.116695,0.70334 -0.05305,1.08979 -0.820748,1.86903 -1.642043,3.74003 -2.38732,5.64652 -0.688143,1.76033 -1.27883,3.56711 -1.91796,5.35102 -0.03329,0.093 -0.104031,0.20379 -0.181659,0.23709 -0.314326,0.13483 -0.638167,0.24258 -0.985866,0.37038 0.08851,-0.39989 0.18408,-0.76549 0.249335,-1.13758 0.331129,-1.88818 0.444891,-3.78032 0.19433,-5.69984 -0.519419,-3.9794 -2.498551,-6.72247 -5.73076,-8.44979 -1.976578,-1.056302 -4.07508,-1.564432 -6.247916,-1.735135 -0.955149,-0.07504 -1.914541,-0.115065 -2.872075,-0.116556 -2.640512,-0.0042 -5.118628,0.708571 -7.489572,2.001101 -3.769891,2.05517 -7.05777,4.8059 -9.991142,8.1149 -3.627853,4.09239 -6.820971,8.56116 -9.63993,13.36364 -1.830273,3.11812 -3.432224,6.37179 -4.793715,9.76978 -1.088734,2.71723 -2.044349,5.48826 -2.675961,8.3823 -0.501894,2.29967 -0.818662,4.63022 -0.888519,6.99987 -0.03982,1.35206 -0.02895,2.69606 0.205116,4.03072 0.4939,2.81611 1.841763,4.97864 4.058514,6.46681 1.419642,0.95306 2.984609,1.44605 4.61583,1.73077 2.27408,0.39695 4.556055,0.45476 6.84931,0.2898 2.641157,-0.18998 5.233912,-0.67755 7.771945,-1.50547 3.473595,-1.13311 6.695129,-2.85515 9.699818,-5.0851 3.046566,-2.26104 5.818307,-4.88186 8.39472,-7.76284 2.6583,-2.97256 5.065073,-6.17949 7.3067,-9.54129 0.130601,-0.19588 0.261146,-0.3947 0.412601,-0.57012 0.36829,-0.42655 0.684841,-0.35226 0.781015,0.22139 0.09033,0.53882 0.114011,1.09535 0.126598,1.6452 0.02843,1.24241 -0.48479,2.29 -1.079195,3.27512 -2.607691,4.32181 -5.807936,8.02669 -9.59157,11.11134 -2.774918,2.26227 -5.757407,4.1236 -8.933444,5.60753 -2.622795,1.22543 -5.331308,2.14647 -8.11984,2.77754 -2.488562,0.56319 -5.003773,0.89111 -7.542696,0.99233 -0.457843,0.0182 -0.915891,0.0303 -1.399282,0.0455 z" id="path2" style="fill:none;stroke:#ff6600;stroke-width:0.053506"/>
    <circle style="fill:none;stroke:#ff6600;stroke-width:0.0346769;stroke-dasharray:none" id="path1" cx="67.859001" cy="129.86" r="44.982662"/>
  </g>
</svg>