<?xml version='1.0' encoding='UTF-8' standalone='no'?>
<svg xmlns:inkscape="http://www.inkscape.org/namespaces/inkscape" xmlns:sodipodi="http://sodipodi.sourceforge.net/DTD/sodipodi-0.dtd" xmlns="http://www.w3.org/2000/svg" xmlns:svg="http://www.w3.org/2000/svg" version="1.1" id="Layer_1" x="0px" y="0px" width="100%" viewBox="0 0 1276 910" enable-background="new 0 0 1276 910" xml:space="preserve"><defs id="defs251"/><path fill="none" opacity="1.000000" stroke="#000000" stroke-linecap="round" stroke-linejoin="round" stroke-width="2.000000" d=" M1276.500000,541.500000   C1276.500000,661.833313 1276.500000,782.166687 1276.500000,902.500000  " id="path132"/>
<path fill="none" opacity="1.000000" stroke="#000000" stroke-linecap="round" stroke-linejoin="round" stroke-width="2.000000" d=" M1276.500000,191.500000   C1276.500000,292.500000 1276.500000,393.500000 1276.500000,494.500000  " id="path134"/>
<path fill="none" opacity="1" stroke="#000000" stroke-linecap="round" stroke-linejoin="round" stroke-width="1.96773" d="m 474.78072,282.18688 c 0.51359,0.17697 1.01639,0.24105 1.32776,-0.35875 0.29077,-0.56011 0.0778,-1.00237 -0.32281,-1.4249 -1.02207,-1.07805 -2.05979,-2.08281 -3.55778,-2.37792 -1.37006,-0.2699 -2.43099,0.31857 -3.0729,1.46062 -0.55153,0.98127 -0.008,2.1602 0.55946,2.89981 1.15738,1.50959 2.66432,2.48835 4.61767,2.69241 1.32256,0.13817 2.50666,0.12684 3.8011,-0.33914 1.17033,-0.4213 1.71942,-1.81151 1.65084,-3.14508 -0.15858,-3.08416 -1.91475,-4.65018 -4.43531,-5.7233 -2.41721,-1.02913 -4.82814,-1.96439 -7.45548,-1.96219 -1.03692,7.2e-4 -2.10683,0.0836 -3.10363,0.36407 -2.11882,0.5962 -3.10997,4.19552 -1.91596,6.38615 0.89994,1.65112 2.20082,2.85862 3.45907,4.14198 1.79812,1.83399 3.51001,3.76725 5.35103,5.54953 1.99659,1.93287 4.26047,3.45717 6.87598,4.2759 2.42269,0.75836 4.63859,2.10692 7.10395,2.74974 1.28865,0.33601 2.43172,1.28381 3.90174,0.85269 0.35781,-0.10494 0.84272,0.18254 1.23218,0.52791 0.48002,0.42569 1.09828,0.75111 1.7572,0.26304" id="path136" style="stroke:#0000ff"/>


<path fill="none" opacity="1.000000" stroke="#000000" stroke-linecap="round" stroke-linejoin="round" stroke-width="2.000000" d=" M1276.250000,1.499998   C1276.333374,3.333332 1276.489136,5.166650 1276.489502,7.000001   C1276.502197,67.166664 1276.500000,127.333336 1276.500000,187.500000  " id="path142"/>
<path fill="none" opacity="1" stroke="#000000" stroke-linecap="round" stroke-linejoin="round" stroke-width="1.57418" d="m 524.10386,316.91886 c -0.81892,1.01446 -2.07906,1.02973 -3.12474,1.50525 -2.58558,1.17579 -5.23615,2.19184 -7.87507,3.23025 -2.87912,1.13295 -5.77711,2.21109 -8.66208,3.32725 -3.0396,1.17599 -6.06746,2.38683 -9.11283,3.54546 -1.27869,0.4865 -2.59782,0.85131 -3.88081,1.32604 -0.49285,0.18235 -0.83729,0.0289 -1.22976,-0.24502 -3.9195,-2.73555 -7.85782,-5.44064 -11.76135,-8.2018 -0.6674,-0.47208 -1.21119,-1.15163 -1.78515,-1.76409 -1.92869,-2.05799 -3.94433,-4.01473 -6.00161,-5.9239" id="path144" style="stroke:#0000ff"/>
<path fill="none" opacity="1" stroke="#000000" stroke-linecap="round" stroke-linejoin="round" stroke-width="1.96773" d="m 489.22218,270.45151 c 0.32371,0.67172 0.0409,1.34164 0.0356,2.01548 -0.0199,2.52751 -0.0435,5.0555 0.0477,7.58733 0.18264,5.07159 1.53241,9.9009 2.47938,14.81459 0.24581,1.27548 0.49452,2.56534 0.90752,3.78473 0.38277,1.13014 0.76374,2.28913 2.07784,2.75715 4.6271,1.64798 9.09104,3.76443 13.64017,5.63419 3.28801,1.35141 6.57614,2.76491 9.81809,4.27261 1.44345,0.67127 3.03259,0.96989 4.43992,1.7912 0.34349,0.20046 0.70975,0.31183 0.88009,0.72805" id="path146" style="stroke:#0000ff"/>
<path fill="none" opacity="1" stroke="#000000" stroke-linecap="round" stroke-linejoin="round" stroke-width="1.96773" d="m 449.34153,278.15655 c -0.38481,0.20663 -0.81108,0.26395 -1.21301,0.38854 -2.2726,0.70443 -2.89097,3.94857 -1.11193,5.88576 2.51198,2.7353 5.63227,4.27663 9.09941,5.11447 1.33932,0.32365 2.63614,0.82667 4.00009,1.06431 3.68015,0.64122 7.36372,1.19102 11.11039,1.08381 0.49675,-0.0142 0.77103,-0.35635 1.16584,-0.49758" id="path148" style="stroke:#0000ff"/>
<path fill="none" opacity="1" stroke="#000000" stroke-linecap="round" stroke-linejoin="round" stroke-width="1.95143" d="m 573.99019,280.11699 c 0.56965,1.26155 0.14347,2.56312 -0.16584,3.70903 -0.7633,2.82795 -1.40275,5.69274 -2.20467,8.50347 -1.2517,4.38716 -2.79623,8.66285 -5.51608,12.36019 -1.03988,1.41359 -1.94067,2.93919 -2.90487,4.41374" id="path150" style="stroke:#0000ff"/>
<path fill="none" opacity="1" stroke="#000000" stroke-linecap="round" stroke-linejoin="round" stroke-width="1.96773" d="m 526.65889,318.5784 c -6.56127,11.17052 -13.83282,21.78882 -21.85406,31.69315 0.72349,1.10942 0.90933,2.20397 1.21135,3.26955 0.67771,2.39107 1.50425,4.73397 2.18855,7.12312 0.54828,1.91431 0.97015,3.86962 1.45973,5.8034 0.35308,1.39453 0.79696,2.75463 1.44311,4.03035 0.25028,0.49414 0.39179,1.0253 1.10467,1.11465 0.36483,0.0457 0.58256,0.63256 0.56063,1.13818" id="path152" style="stroke:#0000ff"/>
<path fill="none" opacity="1" stroke="#000000" stroke-linecap="round" stroke-linejoin="round" stroke-width="2.36127" d="m 559.76317,309.68797 c -0.92364,0.89715 -2.14891,0.72408 -3.22769,0.90719 -3.81479,0.64756 -7.64154,1.207 -11.43841,1.98337 -2.42445,0.49574 -4.86517,0.89973 -7.32665,1.16807 -0.83176,0.0907 -1.632,0.38169 -2.44665,-0.0283" id="path154" style="stroke:#0000ff"/>
<path fill="none" opacity="1" stroke="#000000" stroke-linecap="round" stroke-linejoin="round" stroke-width="2.05545" d="m 530.32525,250.82267 c 4.20379,4.78176 7.49199,10.38705 10.52703,16.18227 1.695,3.23651 3.07165,6.6988 4.58643,10.0626 0.24389,0.54155 0.45525,1.09901 1.11378,1.03593 0.32329,-0.0311 0.37423,0.20901 0.33321,0.51413" id="path156" style="stroke:#0000ff"/>
<path fill="none" opacity="1" stroke="#000000" stroke-linecap="round" stroke-linejoin="round" stroke-width="1.96773" d="m 504.88561,350.58397 c -1.21654,0.0323 -2.33933,0.5459 -3.43134,0.98353 -4.98143,1.99645 -10.03734,3.71201 -15.23431,4.9296 -1.60029,0.37492 -3.2251,0.73044 -4.85141,0.39112 -0.66292,-1.42494 -0.119,-2.85744 0.14671,-4.15438 0.4956,-2.41898 0.78462,-4.90631 1.60192,-7.24512 0.67988,-1.94557 1.4232,-3.86593 2.09877,-5.81313 0.48514,-1.39832 0.98751,-2.78539 1.55292,-4.15052 0.86824,-2.09627 2.22387,-3.82268 3.56419,-5.56691" id="path158" style="stroke:#0000ff"/>
<path fill="none" opacity="1" stroke="#000000" stroke-linecap="round" stroke-linejoin="round" stroke-width="1.96773" d="m 582.53624,321.54188 c -0.54733,0.0146 -0.99419,0.0182 -1.48227,0.55309 -0.7836,0.85888 -1.75828,1.56836 -2.74957,2.15306 -2.79801,1.65039 -5.55982,3.3342 -8.00366,5.57192 -0.82595,0.75631 -1.80285,1.35029 -2.77093,1.89708 -0.90844,0.51311 -1.13265,0.9837 -0.82657,2.1701 0.6377,2.47205 1.1064,5.02279 1.35533,7.57336 0.40472,4.14649 1.89349,7.93925 3.03114,11.85136 0.36005,1.23809 0.84015,2.45329 0.78207,3.79178" id="path160" style="stroke:#0000ff"/>
<path fill="none" opacity="1" stroke="#000000" stroke-linecap="round" stroke-linejoin="round" stroke-width="1.57418" d="m 490.88851,299.13798 c -0.14329,0.86102 -0.9036,0.94169 -1.44322,1.30551 -1.92793,1.29987 -3.85056,2.60869 -5.77781,3.90971 -3.92412,2.64908 -7.85387,5.28867 -11.77025,7.95066 -0.50931,0.3462 -0.95337,0.80167 -1.4267,1.20569 -0.30996,-0.31338 -0.51855,-0.75042 -1.02205,-0.62102" id="path162" style="stroke:#0000ff"/>
<path fill="none" opacity="1" stroke="#000000" stroke-linecap="round" stroke-linejoin="round" stroke-width="2.05823" d="m 529.64602,250.47653 c -1.39955,1.81177 -2.90116,3.54693 -4.17625,5.45216 -2.26081,3.37805 -4.03333,7.07212 -5.85964,10.72708 -1.19998,2.40147 -2.12327,4.93086 -3.13226,7.42001 -0.53741,1.32578 -0.0296,2.73732 0.30385,3.92213 0.64548,2.29333 1.13798,4.6341 1.47675,6.95565 0.47562,3.25936 1.2765,6.42005 1.92928,9.62571 0.63482,3.11761 1.20764,6.25056 1.7397,9.3897 0.13467,0.79438 0.63463,1.36072 0.84646,2.09307 0.49044,1.69546 0.65584,3.43248 0.68719,5.19127 0.009,0.4903 0.01,1.08183 0.37011,1.33175 0.83971,0.58229 1.04736,1.4637 1.26545,2.37451 1.21876,0.41405 2.52844,0.29399 3.75137,0.81589 0.55642,0.23746 1.27709,-0.3054 1.96487,-0.20298 1.70456,0.25385 3.42134,0.13408 5.13102,0.11407 2.25544,-0.0263 4.5097,-0.156 6.76479,-0.23044 0.74696,-0.0247 1.48908,0.0426 2.21588,0.24421" id="path164" style="stroke:#0000ff"/>
<path fill="none" opacity="1" stroke="#000000" stroke-linecap="round" stroke-linejoin="round" stroke-width="1.96773" d="m 572.09395,358.76318 c 0.25238,-1.21866 0.26101,-1.27086 -1.1128,-1.52934 -2.32583,-0.43763 -4.66164,-0.81709 -6.99736,-1.19183 -1.60171,-0.25698 -3.08753,-0.98611 -4.66771,-1.29313 -2.43495,-0.47307 -4.62554,-1.71596 -6.98325,-2.43381 -0.54907,-0.16719 -1.03122,-0.24676 -1.5678,-0.19009" id="path166" style="stroke:#0000ff"/>


<path fill="none" opacity="1" stroke="#000000" stroke-linecap="round" stroke-linejoin="round" stroke-width="1.96773" d="m 544.87735,343.11601 c 0.98799,1.18063 1.51892,2.68608 2.43979,3.91532 0.0686,0.0916 0.0456,0.30156 0.12002,0.34212 1.65787,0.90386 1.82746,2.97475 2.94346,4.32549 0.42461,0.51392 -0.045,1.54067 -0.17687,2.32156 -0.44326,2.6258 -1.43359,5.08183 -2.26156,7.57033 -1.34914,4.05486 -2.99077,7.99892 -4.50897,11.98974" id="path172" style="stroke:#0000ff"/>
<path fill="none" opacity="1" stroke="#000000" stroke-linecap="round" stroke-linejoin="round" stroke-width="1.96773" d="m 547.87673,279.2234 c -1.19099,2.12659 -2.0909,4.41885 -3.31973,6.52822 -1.24344,2.13442 -2.41903,4.31652 -3.55757,6.51707 -1.14962,2.2219 -2.56424,4.29921 -3.61166,6.54784 -1.45615,3.12617 -3.46015,5.85577 -5.03243,8.87462 -0.75923,1.45775 -1.91504,2.75054 -1.95716,4.60371 -0.01,0.43551 -0.47423,0.88062 -0.96255,1.06643 -0.57262,0.21788 -1.029,0.60982 -1.44367,1.06824" id="path174" style="stroke:#0000ff"/>
<path fill="none" opacity="1" stroke="#000000" stroke-linecap="round" stroke-linejoin="round" stroke-width="1.96773" d="m 556.31943,309.21381 c 0.40732,-0.003 0.80186,0.0761 1.22487,0.0453 0.69309,-0.0505 1.45329,-0.37506 2.13348,0.27991 0.20408,0.19653 0.79299,0.17554 1.07147,0.005 1.12542,-0.68953 1.9706,-0.52447 3.17994,0.14846 1.11514,0.62052 2.28187,1.29124 3.4952,1.78445 4.70413,1.91217 8.69796,5.04647 12.55914,8.40244 0.57349,0.49845 1.2492,0.8803 1.55292,1.66257" id="path176" style="stroke:#0000ff"/>

<path fill="none" opacity="1" stroke="#000000" stroke-linecap="round" stroke-linejoin="round" stroke-width="1.18064" d="m 525.32583,318.10424 c -4.45625,3.12256 -8.69956,6.57971 -13.2242,9.5936 -0.85576,0.56999 -1.7727,1.03541 -2.6614,1.54908" id="path180" style="stroke:#0000ff"/>
<path fill="none" opacity="1" stroke="#000000" stroke-linecap="round" stroke-linejoin="round" stroke-width="1.96773" d="m 510.55111,315.37785 c 2.22176,0.15805 4.4481,0.26486 6.66389,0.48982 1.88723,0.19161 3.78021,0.31577 5.66181,0.51358 1.25273,0.1317 2.51976,0.58268 3.67232,1.24621 0.89461,0.51503 1.76704,2.99107 1.45646,4.03758 -0.12059,0.40639 -0.13566,0.86716 -0.11601,1.29886 0.0666,1.46228 0.0984,2.93307 0.14529,4.3889 0.0761,2.35945 -0.22901,4.74466 -0.3216,7.11228 -0.1128,2.88423 -0.69044,5.76939 -0.34954,8.64576 0.2597,2.19119 0.0615,4.35093 0.0776,6.52478 0.0137,1.85731 0.0781,3.71416 0.10016,5.57147 0.006,0.47277 0.13475,0.85355 0.44837,1.18754 1.7701,1.88521 3.03139,4.19239 4.56342,6.27474 2.33541,3.17431 4.59886,6.41977 7.54208,9.02129 0.84727,0.74893 1.8076,1.27159 2.7889,1.75642 0.29588,0.14616 0.66862,0.11461 0.66004,0.60764" id="path182" style="stroke:#0000ff"/>
<path fill="none" opacity="1" stroke="#000000" stroke-linecap="round" stroke-linejoin="round" stroke-width="1.96773" d="m 531.99113,317.39301 c 0.43925,0.92072 1.37619,1.03251 2.11989,1.4013 3.04453,1.50976 6.22465,2.68244 9.304,4.09659 2.21352,1.01653 4.45281,2.02562 6.71224,2.82591 2.65736,0.94126 5.22282,2.06984 7.73006,3.33225 2.37986,1.19826 4.87259,2.15925 7.12136,3.64521 0.4243,0.28039 0.82001,0.54434 1.33869,0.46445" id="path184" style="stroke:#0000ff"/>
<path fill="none" opacity="1" stroke="#000000" stroke-linecap="round" stroke-linejoin="round" stroke-width="1.57418" d="m 529.76936,316.80031 c -0.0667,2.09352 1.03676,3.64581 2.10881,5.21719 0.96392,1.41289 2.14272,2.71839 2.92795,4.19189 1.29497,2.43002 3.09492,4.41643 4.57952,6.66512 2.43878,3.69392 4.75156,7.47551 7.17767,11.17515 0.59507,0.90744 1.2358,1.7736 1.80523,2.70814 0.3583,0.58809 0.42687,1.08498 0.3969,1.69247" id="path186" style="stroke:#0000ff"/>
<path fill="none" opacity="1" stroke="#000000" stroke-linecap="round" stroke-linejoin="round" stroke-width="1.18064" d="m 530.3248,318.81548 c 0.5828,-0.0838 0.98499,0.31892 1.44697,0.58716 3.80713,2.21047 7.29587,4.96134 10.98303,7.37563 0.36951,0.24196 0.88883,0.21097 1.12276,0.69057" id="path188" style="stroke:#0000ff"/>
<path fill="none" opacity="1" stroke="#000000" stroke-linecap="round" stroke-linejoin="round" stroke-width="1.57418" d="m 511.5509,311.82167 c 2.76703,0.26093 5.42684,1.07173 8.11331,1.7609 1.37548,0.35287 2.73961,0.93152 4.22067,0.50392 0.88086,-0.25429 1.3012,0.27261 1.38542,1.17282" id="path190" style="stroke:#0000ff"/>
<path fill="none" opacity="1" stroke="#000000" stroke-linecap="round" stroke-linejoin="round" stroke-width="1.57418" d="m 529.10283,297.24136 c -0.40731,3.12152 -0.80736,6.24417 -1.22666,9.36388 -0.11745,0.87397 -0.2987,1.73798 -0.43695,2.60906 -0.0814,0.51283 -0.24569,0.93934 -0.78033,1.06636" id="path192" style="stroke:#0000ff"/>
<path fill="none" opacity="1" stroke="#000000" stroke-linecap="round" stroke-linejoin="round" stroke-width="1.57418" d="m 532.10222,300.44192 c 0.29429,1.86397 -0.59008,3.45409 -1.14414,5.08431 -0.72665,2.13809 -1.46276,4.275 -2.22093,6.40081 -0.23142,0.6489 -0.0555,1.19757 -0.0787,1.79126" id="path194" style="stroke:#0000ff"/>
<path fill="none" opacity="1" stroke="#000000" stroke-linecap="round" stroke-linejoin="round" stroke-width="1.87269" d="m 488.30485,271.07263 c 1.38,-0.59072 2.79663,-0.22412 4.16951,-0.0782 2.50325,0.266 4.9867,0.78492 7.45574,1.38862 2.85587,0.69827 5.72689,1.23823 8.45546,2.61457 2.1507,1.08487 4.43077,1.79366 6.44937,3.26916 0.097,0.0709 0.26036,0.009 0.39283,0.009" id="path196" style="stroke:#0000ff"/>
<path fill="none" opacity="1" stroke="#000000" stroke-linecap="round" stroke-linejoin="round" stroke-width="1.57418" d="m 520.1047,299.84922 c 1.11317,1.01593 1.61357,2.43582 2.229,3.7895 0.97116,2.13624 1.58619,4.42934 2.61893,6.5456 0.3535,0.72439 0.69763,0.97978 1.373,0.92612" id="path198" style="stroke:#0000ff"/>
<path fill="none" opacity="1" stroke="#000000" stroke-linecap="round" stroke-linejoin="round" stroke-width="1.96773" d="m 527.88086,356.62947 c -5.12056,4.84095 -9.08642,11.02249 -15.10799,14.8174" id="path200" style="stroke:#0000ff"/>
<path fill="none" opacity="1" stroke="#000000" stroke-linecap="round" stroke-linejoin="round" stroke-width="1.18064" d="m 516.32769,302.33854 c 2.44394,3.20055 4.89649,6.39371 7.32381,9.60856 0.43197,0.57212 0.84659,1.19588 0.78563,2.00828" id="path202" style="stroke:#0000ff"/>
<path fill="none" opacity="1" stroke="#000000" stroke-linecap="round" stroke-linejoin="round" stroke-width="1.18064" d="m 528.88066,325.2166 c 0.8291,1.68074 1.11092,3.55725 1.64594,5.34122 0.6115,2.03898 1.32748,4.03313 2.01997,6.03853" id="path204" style="stroke:#0000ff"/>
<path fill="none" opacity="1" stroke="#000000" stroke-linecap="round" stroke-linejoin="round" stroke-width="1.18064" d="m 546.3215,305.65763 c 0.0425,0.56459 -0.27449,0.8572 -0.65577,1.19905 -2.51504,2.25493 -5.32327,4.00225 -8.36088,5.27011 -0.94007,0.39237 -1.67345,0.71756 -2.24593,1.68118 -0.48483,0.81609 -1.56981,0.96498 -2.4057,1.03794 -1.02483,0.0895 -1.678,0.5366 -2.21732,1.36171" id="path206" style="stroke:#0000ff"/>
<path fill="none" opacity="1" stroke="#000000" stroke-linecap="round" stroke-linejoin="round" stroke-width="1.57418" d="m 528.4363,321.06772 c 1.00948,0.0483 0.91842,0.98885 1.24098,1.64897 1.28692,2.63354 2.65727,5.2205 3.97245,7.83858 0.29785,0.5929 0.68054,1.16858 0.67425,1.89222" id="path208" style="stroke:#0000ff"/>
<path fill="none" opacity="1.000000" stroke="#000000" stroke-linecap="round" stroke-linejoin="round" stroke-width="2.000000" d=" M1276.500000,496.500000   C1276.500000,510.833344 1276.500000,525.166687 1276.500000,539.500000  " id="path210"/>
<path fill="none" opacity="1" stroke="#000000" stroke-linecap="round" stroke-linejoin="round" stroke-width="1.18064" d="m 522.99298,324.0312 c -1.11368,-0.20356 -1.75866,0.63486 -2.43602,1.31295 -1.94797,1.95011 -3.85897,3.94229 -5.7845,5.91794" id="path212" style="stroke:#0000ff"/>

<path fill="none" opacity="1" stroke="#000000" stroke-linecap="round" stroke-linejoin="round" stroke-width="1.18064" d="m 537.8788,305.65763 c -2.15587,2.34156 -4.54715,4.39984 -6.88186,6.52668 -0.1548,0.14101 -0.29818,0.0876 -0.44996,0.11152" id="path216" style="stroke:#0000ff"/>
<path fill="none" opacity="1" stroke="#000000" stroke-linecap="round" stroke-linejoin="round" stroke-width="1.96773" d="m 449.45261,277.91947 c 0.0159,0.72452 0.54986,0.348 0.77599,0.33096 2.82969,-0.2132 5.02873,1.11185 7.01516,3.08955 0.54485,0.54245 0.28238,1.22847 0.54046,1.79522" id="path218" style="stroke:#0000ff"/>
<path fill="none" opacity="1" stroke="#000000" stroke-linecap="round" stroke-linejoin="round" stroke-width="1.96773" d="m 458.11749,283.1352 c -0.61907,-0.14879 -0.43274,0.46835 -0.53693,0.71996 -0.98332,2.37478 -3.60237,3.0002 -5.34234,0.81344 -0.41716,-0.52428 -1.02326,-1.07532 -0.44973,-1.88659 0.45733,-0.6469 1.10255,-0.64945 1.99241,0.004 0.32208,0.23651 0.59662,0.54674 0.89286,0.82333" id="path220" style="stroke:#0000ff"/>
<path fill="none" opacity="1" stroke="#000000" stroke-linecap="round" stroke-linejoin="round" stroke-width="2.75482" d="m 574.76007,279.10486 c -1.35939,0.97231 -2.71392,0.0185 -3.98899,-0.18958 -4.11871,-0.6722 -8.23686,-0.72211 -12.33543,-0.23177 -2.88811,0.34552 -5.81343,0.31232 -8.67042,0.95478" id="path222" style="stroke:#0000ff"/>

<path fill="none" opacity="1.000000" stroke="#000000" stroke-linecap="round" stroke-linejoin="round" stroke-width="2.000000" d=" M1270.500000,903.500000   C1257.676270,904.401794 1244.818237,903.719788 1232.000122,903.714661   C1219.014160,903.709473 1206.001587,904.016357 1192.996094,903.630310   C1184.856201,903.388672 1176.674683,903.438721 1168.492798,903.859924   C1159.691284,904.313171 1150.833862,903.568726 1141.999878,903.521912   C1127.000366,903.442322 1111.997803,903.347046 1097.000854,903.560974   C1088.835205,903.677429 1080.674683,903.438660 1072.492798,903.859924   C1063.691284,904.313171 1054.833862,903.568726 1045.999878,903.521912   C1031.000366,903.442322 1015.997803,903.347046 1001.000854,903.560974   C992.835266,903.677429 984.674622,903.438782 976.492798,903.859985   C967.691406,904.313232 958.833862,903.568726 949.999878,903.521912   C935.000305,903.442383 919.997803,903.347046 905.000854,903.560974   C896.835266,903.677429 888.674622,903.438599 880.492798,903.859924   C871.691406,904.313171 862.833862,903.568787 853.999878,903.521912   C839.000305,903.442322 823.997803,903.347107 809.000854,903.561035   C800.835266,903.677490 792.674622,903.438721 784.492798,903.859924   C775.691406,904.313171 766.833862,903.568726 757.999878,903.521912   C743.000305,903.442322 727.997803,903.347046 713.000854,903.560974   C704.835266,903.677429 696.674622,903.438721 688.492798,903.859985   C679.691406,904.313232 670.833862,903.568787 661.999878,903.521912   C647.000305,903.442383 631.997803,903.347107 617.000854,903.561035   C608.835266,903.677490 600.674622,903.438660 592.492798,903.859985   C583.691406,904.313171 574.833862,903.568787 565.999878,903.521912   C551.000305,903.442322 535.997803,903.347046 521.000854,903.560974   C512.835266,903.677429 504.674652,903.438721 496.492798,903.859985   C487.691376,904.313232 478.833862,903.568726 469.999878,903.521912   C455.000305,903.442322 439.997833,903.347046 425.000854,903.560974   C416.835297,903.677429 408.674652,903.438660 400.492798,903.859985   C391.691376,904.313171 382.833862,903.568787 373.999878,903.521912   C359.000305,903.442383 343.997833,903.347107 329.000885,903.561035   C320.835297,903.677490 312.674652,903.438721 304.492798,903.859924   C295.691376,904.313171 286.833862,903.568787 277.999878,903.521912   C263.000305,903.442322 247.997818,903.347046 233.000870,903.560974   C224.835266,903.677429 216.674652,903.438721 208.492783,903.859924   C199.691376,904.313171 190.833847,903.568726 181.999878,903.521912   C167.000305,903.442383 151.997818,903.347107 137.000870,903.561035   C128.835281,903.677490 120.674652,903.438599 112.492790,903.859924   C103.691368,904.313110 94.833855,903.568787 85.999886,903.521912   C71.000305,903.442383 55.992363,903.216248 41.003220,903.619629   C33.500786,903.821594 25.989672,902.723755 18.488522,903.928528   C16.564903,904.237488 14.499999,903.666687 12.499999,903.500000  " id="path226"/>
<path fill="none" opacity="1" stroke="#000000" stroke-linecap="round" stroke-linejoin="round" stroke-width="1.18064" d="m 525.43692,302.45708 c 0.62467,1.48088 1.06875,2.98646 0.55544,4.62302" id="path228" style="stroke:#0000ff"/>
<path fill="none" opacity="1" stroke="#000000" stroke-linecap="round" stroke-linejoin="round" stroke-width="1.18064" d="m 539.32294,315.02224 c -1.03683,0.079 -2.07316,0.16665 -3.11074,0.23222 -0.34618,0.0219 -0.71492,0.0805 -0.99952,-0.23223" id="path230" style="stroke:#0000ff"/>


<path fill="none" opacity="1" stroke="#000000" stroke-linecap="round" stroke-linejoin="round" stroke-width="0.787092" d="m 536.8479,307.34705 c -0.81465,0.79026 -1.62929,1.58052 -2.44394,2.37079" id="path236" style="stroke:#0000ff"/>
<path fill="none" opacity="1.000000" stroke="#000000" stroke-linecap="round" stroke-linejoin="round" stroke-width="4.000000" d=" M588.500000,865.500000   C585.386292,863.620239 582.408142,864.179993 579.500000,866.000000  " id="path238"/>
<path fill="none" opacity="1.000000" stroke="#000000" stroke-linecap="round" stroke-linejoin="round" stroke-width="3.000000" d=" M1066.500000,527.500000   C1066.595825,530.337524 1065.015991,533.273560 1067.000000,536.000000  " id="path240"/>
<path fill="none" opacity="1" stroke="#000000" stroke-linecap="round" stroke-linejoin="round" stroke-width="1.18064" d="m 530.88025,322.60873 c -0.43998,-0.3231 -0.60208,-1.091 -1.33306,-0.94831" id="path242" style="stroke:#0000ff"/>


<circle style="opacity:0.5;fill:none;fill-opacity:0.0627451;stroke:#ff0000;stroke-width:3.56031" id="path1134" cx="520.16962" cy="312.55475" r="90"/></svg>