<?xml version='1.0' encoding='UTF-8' standalone='no'?>
<!-- Created with Inkscape (http://www.inkscape.org/) --><svg xmlns:inkscape="http://www.inkscape.org/namespaces/inkscape" xmlns:sodipodi="http://sodipodi.sourceforge.net/DTD/sodipodi-0.dtd" xmlns="http://www.w3.org/2000/svg" xmlns:svg="http://www.w3.org/2000/svg" width="210mm" height="297mm" viewBox="0 0 210 297" version="1.1" id="svg1" xml:space="preserve"><defs id="defs1"><linearGradient id="swatch55"><stop style="stop-color:#000000;stop-opacity:1;" offset="0" id="stop55"/></linearGradient><rect x="350.37433" y="267.33107" width="196.80117" height="61.429266" id="rect47"/><linearGradient id="swatch32"><stop style="stop-color:#000000;stop-opacity:1;" offset="0" id="stop32"/></linearGradient><linearGradient id="swatch31"><stop style="stop-color:#000000;stop-opacity:1;" offset="0" id="stop31"/></linearGradient><linearGradient id="swatch18"><stop style="stop-color:#000000;stop-opacity:1;" offset="0" id="stop18"/></linearGradient><linearGradient id="swatch17"><stop style="stop-color:#000000;stop-opacity:1;" offset="0" id="stop17"/></linearGradient><linearGradient id="swatch13"><stop style="stop-color:#000000;stop-opacity:1;" offset="0" id="stop13"/></linearGradient><linearGradient id="swatch10"><stop style="stop-color:#000000;stop-opacity:1;" offset="0" id="stop10"/></linearGradient><linearGradient id="swatch7"><stop style="stop-color:#000000;stop-opacity:1;" offset="0" id="stop7"/></linearGradient><rect x="42.108812" y="521.3472" width="118.9741" height="84.217624" id="rect6"/><linearGradient id="swatch4"><stop style="stop-color:#000000;stop-opacity:1;" offset="0" id="stop4"/></linearGradient><rect x="124.32125" y="443.14512" width="190.49225" height="187.81867" id="rect3"/><rect x="104.93783" y="425.09848" width="156.40416" height="123.65286" id="rect2"/><linearGradient id="swatch1"><stop style="stop-color:#000000;stop-opacity:1;" offset="0" id="stop1"/></linearGradient></defs><g id="layer1"><rect style="fill:none;fill-opacity:1;stroke:#ff0000;stroke-width:0.965;stroke-dasharray:none" id="rect1" width="90" height="90" x="72.11335" y="-187.64532" transform="scale(1,-1)"/><text xml:space="preserve" transform="scale(0.26458333)" id="text2" style="fill:#000000;text-orientation:auto;writing-mode:lr-tb;direction:ltr;stroke-width:3.64724409;stroke-dasharray:none;white-space:pre;shape-inside:url(#rect2)"/><text xml:space="preserve" transform="scale(0.26458333)" id="text3" style="fill:#000000;text-orientation:auto;writing-mode:lr-tb;direction:ltr;stroke-width:3.64724409;stroke-dasharray:none;white-space:pre;shape-inside:url(#rect3)"/><text xml:space="preserve" transform="scale(0.26458333)" id="text6" style="fill:#000000;text-orientation:auto;writing-mode:lr-tb;direction:ltr;stroke-width:3.64724409;stroke-dasharray:none;white-space:pre;shape-inside:url(#rect6)"/><path style="fill:none;stroke:#00ffff;stroke-width:1.965;stroke-linejoin:round;stroke-dasharray:none;stroke-opacity:1" d="m 94.92811,135.68272 c 5.76378,0.94747 5.76378,0.94747 5.76378,0.94747 0,0 0.65774,-6.33018 4.91172,-3.56303 4.25397,2.76715 -4.41918,9.95347 -7.80584,15.15737 -3.38666,5.20389 -2.68455,9.91217 -2.68455,9.91217 l 18.33752,0.0413 0.28911,-7.47544 -9.25136,-0.2891 c 0,0 12.76192,-11.93592 7.51673,-19.98956 -5.24519,-8.05364 -13.42274,-3.88227 -13.42274,-3.88227 0,0 -5.40892,4.48771 -3.65437,9.14108 z" id="path10"/><path style="fill:none;stroke:#00ffff;stroke-width:1.965;stroke-linejoin:round;stroke-dasharray:none;stroke-opacity:1" d="m 116.02411,150.45533 c 0,0 1.00865,8.48618 9.22376,8.20865 8.21511,-0.27754 11.68238,-2.42967 9.81531,-13.25983 -1.50666,-8.73952 -7.66003,-8.1041 -7.66003,-8.1041 l -3.89039,0.0965 0.44892,-3.70453 10.3244,-0.33304 -0.27754,-6.88293 -15.04254,0.11101 -1.66522,16.9298 5.9393,1.05464 c 0,0 3.421,-3.31923 5.72801,0.30119 0.23531,0.36928 0.41953,0.83057 0.61457,1.35383 0.69244,1.85764 0.76371,3.26258 0.3197,4.33567 -1.1711,2.83041 -5.33616,3.11635 -5.87722,1.20922 -0.5153,-1.81634 0.0633,-1.97507 -3.88552,-1.99828 -3.84441,-0.0226 -4.11551,0.68216 -4.11551,0.68216 z" id="path11"/><path style="fill:none;stroke:#00ffff;stroke-width:0.964999;stroke-linejoin:round;stroke-dasharray:none;stroke-opacity:1;paint-order:stroke fill markers" d="m 101.98646,100.59976 -13.009501,5.72883 c 0,0 -5.37727,2.07954 -6.2098,7.43153 -0.102364,0.65806 -0.21106,1.27566 -0.372919,1.85281 -0.134019,0.47788 -0.178413,0.87034 -0.267328,1.29274 -0.135135,0.64198 -0.268925,1.2199 -0.396524,1.73374 -0.511708,2.06068 -0.721949,3.09102 -0.721949,3.09102 l -3.50852,12.01225 -1.48667,7.43332 -0.3568,2.49759 -0.11893,2.02187 c 0,0 4.769499,2.34122 13.938643,3.32018 1.443889,0.15416 0.02583,32.35976 0.333327,32.35976 0,0 0.11894,3.09226 6.065601,2.20026 5.94665,-0.892 30.68474,0.77307 37.04767,0.3568 6.36292,-0.41627 5.65981,-1.71788 6.24924,-6.6354 0.75185,-6.27256 -0.28806,-21.99564 0.18661,-28.87816 l 7.8164,-1.81847 c 0,0 7.24321,-1.25358 7.17722,-4.45389 -0.066,-3.20031 -3.49724,-18.01411 -3.49724,-18.01411 l -3.85368,-13.11369 c 0,0 -0.95906,-3.65398 -1.96334,-4.14979 l -2.55604,-1.25206 -7.96722,-3.4627 -3.08625,-1.35374 c 0,0 -1.0248,-0.31561 -1.92091,-0.920221 -4.44273,4.544141 -9.68273,8.573871 -14.30064,8.560811 -4.85652,-0.0137 -8.24677,-3.95561 -13.22044,-7.84128 z" id="path12"/><path style="fill:none;stroke:#00ffff;stroke-width:0.964999;stroke-dasharray:none;stroke-opacity:1" d="m 100.08905,101.75336 c 0,0 7.66158,9.53345 15.49729,9.22873 7.83571,-0.30473 16.01967,-10.05583 16.01967,-10.05583" id="path13"/><path style="fill:#00ffff;stroke:#00ffff;stroke-width:0.964999;stroke-dasharray:none;stroke-opacity:1" d="m 75.975992,141.93617 c 0,0 10.720724,4.19756 14.025366,3.09401" id="path14"/><path style="fill:none;stroke:#00ffff;stroke-width:0.985766;stroke-dasharray:none;stroke-opacity:1;stroke-linecap:round" d="M 90.051004,152.49441 89.904628,129.38505" id="path15"/><path style="fill:none;stroke:#00ffff;stroke-width:0.964999;stroke-dasharray:none;stroke-opacity:1;stroke-linecap:round" d="m 139.33451,148.5678 0.42662,-19.48214" id="path16"/><path style="fill:none;stroke:#00ffff;stroke-width:0.964999;stroke-dasharray:none;stroke-opacity:1" d="m 139.41573,144.77625 c 0,-0.11449 10.01331,-1.59059 14.63572,-5.2044" id="path17"/><path style="fill:none;stroke:#00ffff;stroke-width:0.964999;stroke-dasharray:none;stroke-opacity:1" d="m 104.29565,158.25428 0.42607,25.20939" id="path18"/><path style="fill:none;stroke:#00ffff;stroke-width:0.964999;stroke-dasharray:none;stroke-opacity:1" d="m 104.22464,132.5478 v 7.17225" id="path19"/><path style="fill:none;stroke:#00ffff;stroke-width:0.967064;stroke-dasharray:none;stroke-opacity:1" d="m 104.4376,106.27217 -0.0708,9.03307" id="path20"/><path style="fill:none;stroke:#00ffff;stroke-width:1.0871;stroke-dasharray:none;stroke-opacity:1" d="m 104.28736,120.8963 -0.0288,4.24186" id="path21"/><rect style="fill:#000000;stroke:#00ffff;stroke-width:0.83907;stroke-dasharray:none;stroke-opacity:1" id="rect30" width="0.24550629" height="7.8924632" x="125.42741" y="107.01915"/><rect style="fill:#000000;stroke:#00ffff;stroke-width:0.801944;stroke-dasharray:none;stroke-opacity:1" id="rect31" width="0.31102392" height="2.4208436" x="125.19959" y="123.15746"/><rect style="fill:#000000;stroke:#00ffff;stroke-width:0.702002;stroke-dasharray:none;stroke-opacity:1" id="rect31-8" width="0.23310296" height="2.4751475" x="125.19029" y="133.79233"/><rect style="fill:#000000;stroke:#00ffff;stroke-width:0.833986;stroke-dasharray:none;stroke-opacity:1" id="rect31-8-8" width="0.13891539" height="8.7710152" x="125.16212" y="143.27713"/><rect style="fill:#000000;stroke:#00ffff;stroke-width:0.696858;stroke-dasharray:none;stroke-opacity:1" id="rect31-8-8-4" width="0.14437866" height="2.4525633" x="124.63284" y="158.09497"/><rect style="fill:#000000;stroke:#00ffff;stroke-width:0.851326;stroke-dasharray:none;stroke-opacity:1" id="rect31-8-8-4-0" width="0.083778881" height="10.128138" x="124.40247" y="173.06189"/><text xml:space="preserve" style="font-size:10.2962px;writing-mode:lr-tb;direction:ltr;fill:none;stroke:#00ffff;stroke-width:0.45;stroke-linejoin:round;stroke-miterlimit:3.8;stroke-dasharray:none;stroke-opacity:1" x="93.706657" y="121.70459" id="text31" transform="scale(0.99041828,1.0096744)"><tspan id="tspan31" style="fill:none;stroke:#00ffff;stroke-width:0.45;stroke-linejoin:round;stroke-miterlimit:3.8;stroke-dasharray:none" x="93.706657" y="121.70459">NANJING </tspan></text><path style="fill:none;stroke:#00ffff;stroke-width:0.865;stroke-linejoin:round;stroke-miterlimit:3.8;stroke-dasharray:none;stroke-opacity:1" d="m 118.36951,163.87617 2.49294,4.86278 2.12361,2.55449 c 2.15733,1.78188 3.64596,3.0381 5.35521,4.86277 l 2.76993,2.03129 -6.50211,-8.18721 z" id="path38"/><path style="fill:none;stroke:#00ffff;stroke-width:0.865;stroke-linejoin:round;stroke-miterlimit:3.8;stroke-dasharray:none;stroke-opacity:1" d="m 119.53903,160.12138 1.23109,3.32392 4.77622,6.43767 6.51895,6.11936 -7.81737,-11.32595 z" id="path39"/><path style="fill:none;stroke:#00ffff;stroke-width:0.865;stroke-linejoin:round;stroke-miterlimit:3.8;stroke-dasharray:none;stroke-opacity:1" d="m 121.92764,158.34688 1.42775,3.90407 2.92381,3.90869 5.30158,6.46445 3.99309,3.32264 -4.6108,-7.94335 -3.94521,-4.70601 -2.61605,-2.95459 z" id="path40"/><text xml:space="preserve" transform="scale(0.26458333)" id="text47" style="fill:none;text-orientation:auto;writing-mode:lr-tb;direction:ltr;stroke-width:1.7007874;stroke-dasharray:none;stroke:#000000;stroke-opacity:1;stroke-miterlimit:3.8;stroke-linejoin:round;paint-order:stroke fill markers;stroke-linecap:round;white-space:pre;shape-inside:url(#rect47)"/><text xml:space="preserve" style="font-style:normal;font-variant:normal;font-weight:normal;font-stretch:normal;font-size:3.175px;font-family:Cookie;-inkscape-font-specification:Cookie;writing-mode:lr-tb;direction:ltr;white-space:pre;inline-size:24.5347;fill:#00ffff;stroke:#00ffff;stroke-width:0.15;stroke-linecap:round;stroke-linejoin:round;stroke-miterlimit:3.8;stroke-dasharray:none;stroke-opacity:1;paint-order:stroke fill markers" x="109.85932" y="77.954971" id="text48" transform="matrix(0.03676824,-1.8171557,1.8171557,0.03676824,0.73481149,378.48861)"><tspan x="109.85932" y="77.954971" id="tspan2"><tspan style="font-style:italic;font-family:'Brush Script MT';-inkscape-font-specification:'Brush Script MT Italic'" id="tspan1">CALVIN BAE</tspan></tspan></text><text xml:space="preserve" style="font-style:normal;font-variant:normal;font-weight:normal;font-stretch:normal;font-size:3.175px;font-family:Cookie;-inkscape-font-specification:Cookie;writing-mode:lr-tb;direction:ltr;white-space:pre;inline-size:24.5347;fill:#000000;stroke:#000000;stroke-width:0.15;stroke-linecap:round;stroke-linejoin:round;stroke-miterlimit:3.8;stroke-dasharray:none;stroke-opacity:1;paint-order:stroke fill markers" x="109.85932" y="77.954971" id="text48-5" transform="matrix(0.03676824,-1.8171557,1.8171557,0.03676824,6.7875357,379.15008)"/><text xml:space="preserve" style="font-style:italic;font-variant:normal;font-weight:normal;font-stretch:normal;font-size:3.175px;font-family:'Brush Script MT';-inkscape-font-specification:'Brush Script MT Italic';writing-mode:lr-tb;direction:ltr;fill:#000000;stroke:#000000;stroke-width:0.15;stroke-linecap:round;stroke-linejoin:round;stroke-miterlimit:3.8;stroke-dasharray:none;stroke-opacity:1;paint-order:stroke fill markers" x="150.98389" y="179.86777" id="text49"><tspan id="tspan49" style="stroke-width:0.15" x="150.98389" y="179.86777"/></text><text xml:space="preserve" style="font-style:italic;font-variant:normal;font-weight:normal;font-stretch:normal;font-size:7.64523px;font-family:'Brush Script MT';-inkscape-font-specification:'Brush Script MT Italic';writing-mode:lr-tb;direction:ltr;fill:#00ffff;stroke:#00ffff;stroke-width:0.361194;stroke-linecap:round;stroke-linejoin:round;stroke-miterlimit:3.8;stroke-dasharray:none;stroke-opacity:1;paint-order:stroke fill markers" x="151.23819" y="185.24516" id="text53"><tspan id="tspan53" style="stroke-width:0.361194;fill:#00ffff;stroke:#00ffff" x="151.23819" y="185.24516">1/1</tspan></text></g></svg>