<?xml version='1.0' encoding='UTF-8' standalone='no'?>
<!-- Created with Inkscape (http://www.inkscape.org/) --><svg xmlns:inkscape="http://www.inkscape.org/namespaces/inkscape" xmlns:sodipodi="http://sodipodi.sourceforge.net/DTD/sodipodi-0.dtd" xmlns="http://www.w3.org/2000/svg" xmlns:svg="http://www.w3.org/2000/svg" width="420mm" height="297mm" viewBox="0 0 420 297" version="1.1" id="svg1">
  <defs id="defs1"/>
  <g id="layer1">
    <path stroke="#ff0000" stroke-width="0.25" fill="none" d="m 165.53451,40.175321 h -3 -4.5 v 3 h -9 v -3 h -9 v 3 h -9 v -3 h -9 v 3 h -9 v -3 h -9 v 3 h -9.000004 v -3 h -9 v 3 h -9 v -3 h -9 v 3 h -9 v -3 h -9 v 3 h -9 v -3 h -9 v 3 h -9 v -3 h -4.5 -3 v 3 4.5 h 3 v 9 h -3 v 9 h 3 v 9 h -3 v 9 h 3 v 9 h -3 v 8.999999 h 3 v 9 h -3 v 9 h 3 v 9 h -3 v 9 h 3 v 9 h -3 v 9 h 3 v 9 h -3 v 9 h 3 v 9 h -3 v 4.5 3 h 3 4.5 v -3 h 9 v 3 h 9 v -3 h 9 v 3 h 9 v -3 h 9 v 3 h 9 v -3 h 9 v 3 h 9 v -3 h 9.000004 v 3 h 9 v -3 h 9 v 3 h 9 v -3 h 9 v 3 h 9 v -3 h 9 v 3 h 4.5 3 v -3 -4.5 h -3 v -9 h 3 v -9 h -3 v -9 h 3 v -9 h -3 v -9 h 3 v -9 h -3 v -9 h 3 v -9 h -3 v -9 h 3 v -8.999999 h -3 v -9 h 3 v -9 h -3 v -9 h 3 v -9 h -3 v -9 h 3 v -4.5 z" id="path5"/>
    <path stroke="#ff0000" stroke-width="0.25" fill="none" d="m 381.15334,46.178195 h -3 -4.5 v 3 h -9 v -3 h -9 v 3 h -9 v -3 h -9 v 3 h -9 v -3 h -9 v 3 h -9 v -3 h -9 v 3 h -9 v -3 h -9 v 3 h -9 v -3 h -9 v 3 h -9 v -3 h -9 v 3 h -9 v -3 h -4.5 -3 v 3 4.5 h 3 v 9 h -3 v 9 h 3 v 9 h -3 v 9 h 3 v 9 h -3 v 8.999995 h 3 v 9 h -3 v 9 h 3 v 9 h -3 v 9 h 3 v 9 h -3 v 9 h 3 v 9 h -3 v 9 h 3 v 9 h -3 v 4.5 3 h 3 4.5 v -3 h 9 v 3 h 9 v -3 h 9 v 3 h 9 v -3 h 9 v 3 h 9 v -3 h 9 v 3 h 9 v -3 h 9 v 3 h 9 v -3 h 9 v 3 h 9 v -3 h 9 v 3 h 9 v -3 h 9 v 3 h 4.5 3 v -3 -4.5 h -3 v -9 h 3 v -9 h -3 v -9 h 3 v -9 h -3 v -9 h 3 v -9 h -3 v -9 h 3 v -9 h -3 v -9 h 3 v -8.999995 h -3 v -9 h 3 v -9 h -3 v -9 h 3 v -9 h -3 v -9 h 3 v -4.5 z" id="path5-9"/>
    <text xml:space="preserve" style="font-size:17.6389px;font-family:Sans;-inkscape-font-specification:'Sans, Normal';text-align:start;writing-mode:lr-tb;direction:ltr;text-anchor:start;fill:none;stroke:#ff0000;stroke-width:0.264583" x="214.93117" y="92.463264" id="text1"><tspan id="tspan1" style="stroke-width:0.264583"/></text>
    <text xml:space="preserve" style="font-size:17.6389px;font-family:Sans;-inkscape-font-specification:'Sans, Normal';text-align:start;writing-mode:lr-tb;direction:ltr;text-anchor:start;fill:none;stroke:#ff0000;stroke-width:0.264583" x="79.604134" y="69.806702" id="text2"><tspan id="tspan2" style="stroke-width:0.264583" x="79.604134" y="69.806702"/></text>
    <text xml:space="preserve" style="font-size:17.6389px;font-family:Sans;-inkscape-font-specification:'Sans, Normal';text-align:start;writing-mode:lr-tb;direction:ltr;text-anchor:start;fill:none;stroke:#ff0000;stroke-width:0.264583" x="75.317764" y="77.154778" id="text3"><tspan id="tspan3" style="fill:none;stroke-width:0.264583" x="75.317764" y="77.154778"/></text>
    <text xml:space="preserve" style="font-size:17.6389px;font-family:Sans;-inkscape-font-specification:'Sans, Normal';text-align:start;writing-mode:lr-tb;direction:ltr;text-anchor:start;fill:none;stroke:#ff0000;stroke-width:0.264583" x="58.784592" y="72.256065" id="text4"><tspan id="tspan4" style="stroke-width:0.264583" x="58.784592" y="72.256065"/></text>
  </g>
</svg>