<?xml version='1.0' encoding='UTF-8' standalone='no'?>
<!-- Created by Makercase v3 --><!-- MAKERCASE_STATE:{"mc":1,"gen":"basicBox","sv":1,"store":"basicBoxStore","data":"PY69DsIwDITf5eYIlX+RmYUBCQk2xBCIaS31T0laClXfHdOWbv7sO9+1qMl5LnLoucK9aA65Z0t7zjx0ixfbkMhptVKwVE5zQhwnoYdOITOBHJv056hNWhH0UiFQIwosZ1EEhUflQ5FBP03qSTzc54ysUJQkFUaQGpd3KUc8OY/JiZ1sTCfjzFBrWJ/5I5qdGvHI8mEzkWmgt4s/ngOV0NFsLdGOckvO3FNxX+cqunVf","crc":734406204} --><svg xmlns:inkscape="http://www.inkscape.org/namespaces/inkscape" xmlns:sodipodi="http://sodipodi.sourceforge.net/DTD/sodipodi-0.dtd" xmlns="http://www.w3.org/2000/svg" xmlns:svg="http://www.w3.org/2000/svg" width="297mm" height="420mm" viewBox="-2 -2 297 420" version="1.1" id="svg12">
  <defs id="defs12">
    <rect x="649.9516" y="172.9229" width="71.554306" height="77.517159" id="rect19"/>
    <rect x="942.13165" y="131.18289" width="89.442879" height="89.442879" id="rect18"/>
    <rect x="858.65161" y="465.10297" width="208.70004" height="369.69724" id="rect14"/>
  </defs>
  <path stroke="#ff0000" stroke-width="0.25" fill="none" d="m 226.92729,169.64742 h -3 -4.5 v 3 h -9 v -3 h -9 v 3 h -9 v -3 h -9 v 3 h -9 v -3 h -9 v 3 h -9 v -3 h -9 v 3 h -9 v -3 h -9 v 3 h -9 v -3 h -9 v 3 h -9 v -3 h -9.000002 v 3 h -9 v -3 h -4.499999 -3 v 3 4.5 h 3 v 9 h -3 v 9 h 3 v 9 h -3 v 9 h 3 v 9 h -3 v 9 h 3 v 9 h -3 v 9 h 3 v 9 h -3 v 9 h 3 v 9 h -3 v 9 h 3 v 9 h -3 v 9 h 3 v 9 h -3 v 4.5 3 h 3 4.499999 v -3 h 9 v 3 h 9.000002 v -3 h 9 v 3 h 9 v -3 h 9 v 3 h 9 v -3 h 9 v 3 h 9 v -3 h 9 v 3 h 9 v -3 h 9 v 3 h 9 v -3 h 9 v 3 h 9 v -3 h 9 v 3 h 4.5 3 v -3 -4.5 h -3 v -9 h 3 v -9 h -3 v -9 h 3 v -9 h -3 v -9 h 3 v -9 h -3 v -9 h 3 v -9 h -3 v -9 h 3 v -9 h -3 v -9 h 3 v -9 h -3 v -9 h 3 v -9 h -3 v -9 h 3 v -4.5 z" id="path5"/>
  <path d="m 137.96028,238.80161 h 0.936 v 6.72 h 3.36 v 0.816 h -4.296 z m 7.602,7.68 v 0 q -0.744,0 -1.329,-0.381 -0.585,-0.381 -0.924,-1.059 -0.339,-0.678 -0.339,-1.56 v 0 q 0,-0.942 0.336,-1.62 0.336,-0.678 0.921,-1.041 0.585,-0.363 1.335,-0.363 v 0 q 0.654,0 1.116,0.264 0.462,0.264 0.744,0.714 0.282,0.45 0.393,1.017 0.111,0.567 0.063,1.173 v 0 h -4.152 v -0.576 h 3.534 l -0.276,0.18 q 0.018,-0.354 -0.039,-0.708 -0.057,-0.354 -0.213,-0.651 -0.156,-0.297 -0.438,-0.477 -0.282,-0.18 -0.72,-0.18 v 0 q -0.552,0 -0.924,0.282 -0.372,0.282 -0.558,0.741 -0.186,0.459 -0.186,0.993 v 0 0.384 q 0,0.6 0.183,1.074 0.183,0.474 0.549,0.75 0.366,0.276 0.924,0.276 v 0 q 0.558,0 0.918,-0.27 0.36,-0.27 0.438,-0.798 v 0 h 0.972 q -0.09,0.57 -0.408,0.981 -0.318,0.411 -0.81,0.633 -0.492,0.222 -1.11,0.222 z m 5.418,-0.144 h -0.936 v -6.624 q 0,-0.57 0.219,-0.933 0.219,-0.363 0.588,-0.537 0.369,-0.174 0.825,-0.174 v 0 q 0.246,0 0.501,0.036 0.255,0.036 0.507,0.108 v 0 l -0.18,0.744 q -0.18,-0.072 -0.357,-0.108 -0.177,-0.036 -0.339,-0.036 v 0 q -0.192,0 -0.384,0.072 -0.192,0.072 -0.318,0.27 -0.126,0.198 -0.126,0.57 v 0 z m 1.188,-5.088 h -3.06 v -0.648 h 3.06 z m 3.438,5.232 v 0 q -0.468,0 -0.84,-0.18 -0.372,-0.18 -0.588,-0.54 -0.216,-0.36 -0.216,-0.9 v 0 -5.856 h 0.924 v 5.832 q 0,0.888 0.828,0.888 v 0 q 0.246,0 0.477,-0.054 0.231,-0.054 0.519,-0.162 v 0 l 0.132,0.672 q -0.306,0.132 -0.609,0.216 -0.303,0.084 -0.627,0.084 z m 1.092,-5.232 h -3.66 v -0.648 h 3.66 z" stroke="none" stroke-width="0.5" fill="#000000" id="path6"/>
  <path stroke="#ff0000" stroke-width="0.25" fill="none" d="m 222.20163,8.1708962 h -9 v 2.9999998 h -9 V 8.1708962 h -9 v 2.9999998 h -9 V 8.1708962 h -9 v 2.9999998 h -9 V 8.1708962 h -9 v 2.9999998 h -9 V 8.1708962 h -9 v 2.9999998 h -9 V 8.1708962 h -9 v 2.9999998 h -9 V 8.1708962 h -9 V 11.170896 H 96.201626 V 8.1708962 h -9 v 2.9999998 h -4.5 v 4.5 h -3 v 9 h 3 v 9 h -3 v 9 h 3 v 9 h -3 v 9 h 3 v 9 h -3 v 9 h 3 v 9 h -3 v 9 h 3 v 9.000004 h -3 v 9 h 3 v 9 h -3 v 9 h 3 v 9 h -3 v 9 h 3 v 4.5 h 4.5 v 3 h 9 v -3 h 9.000004 v 3 h 9 v -3 h 9 v 3 h 9 v -3 h 9 v 3 h 9 v -3 h 9 v 3 h 9 v -3 h 9 v 3 h 9 v -3 h 9 v 3 h 9 v -3 h 9 v 3 h 9 v -3 h 4.5 v -4.5 h 3 v -9 h -3 v -9 h 3 v -9 h -3 v -9 h 3 v -9 h -3 v -9.000004 h 3 v -9 h -3 v -9 h 3 v -9 h -3 v -9 h 3 v -9 h -3 v -9 h 3 v -9 h -3 v -9 h 3 v -9 h -3 v -4.5 h -4.5 z" id="path11"/>
  <path d="m 147.65463,80.206896 h -2.67 v -0.804 h 5.868 v 0.804 h -2.682 l 0.21,-0.216 v 6.948 h -0.936 v -6.948 z m 6.552,6.876 v 0 q -0.774,0 -1.377,-0.342 -0.603,-0.342 -0.951,-1.014 -0.348,-0.672 -0.348,-1.656 v 0 q 0,-0.99 0.348,-1.659 0.348,-0.669 0.951,-1.011 0.603,-0.342 1.377,-0.342 v 0 q 0.768,0 1.371,0.342 0.603,0.342 0.948,1.011 0.345,0.669 0.345,1.659 v 0 q 0,0.984 -0.345,1.656 -0.345,0.672 -0.948,1.014 -0.603,0.342 -1.371,0.342 z m -0.024,-0.816 v 0 q 0.558,0 0.948,-0.267 0.39,-0.267 0.591,-0.759 0.201,-0.492 0.201,-1.17 v 0 q 0,-1.026 -0.426,-1.617 -0.426,-0.591 -1.266,-0.591 v 0 q -0.564,0 -0.951,0.267 -0.387,0.267 -0.588,0.762 -0.201,0.495 -0.201,1.179 v 0 q 0,1.014 0.429,1.605 0.429,0.591 1.263,0.591 z m 7.11,0.816 v 0 q -0.63,0 -1.095,-0.288 -0.465,-0.288 -0.717,-0.843 -0.252,-0.555 -0.252,-1.353 v 0 h 0.396 q 0,0.534 0.222,0.9 0.222,0.366 0.579,0.555 0.357,0.189 0.759,0.189 v 0 q 0.432,0 0.828,-0.249 0.396,-0.249 0.648,-0.735 0.252,-0.486 0.252,-1.2 v 0 q 0,-0.684 -0.231,-1.17 -0.231,-0.486 -0.621,-0.744 -0.39,-0.258 -0.864,-0.258 v 0 q -0.408,0 -0.768,0.198 -0.36,0.198 -0.582,0.579 -0.222,0.381 -0.222,0.939 v 0 h -0.396 q 0,-0.834 0.276,-1.401 0.276,-0.567 0.75,-0.855 0.474,-0.288 1.062,-0.288 v 0 q 0.672,0 1.254,0.36 0.582,0.36 0.942,1.032 0.36,0.672 0.36,1.608 v 0 q 0,0.948 -0.363,1.626 -0.363,0.678 -0.951,1.038 -0.588,0.36 -1.266,0.36 z m -1.668,2.676 h -0.936 v -8.556 h 0.78 l 0.156,1.344 z" stroke="none" stroke-width="0.5" fill="#000000" id="path12"/>
  <ellipse style="fill:none;stroke:#ff0000;stroke-width:0.264583" id="path13" cx="155.16295" cy="82.05455" rx="58.373898" ry="31.553459"/>
  <text xml:space="preserve" transform="matrix(0.26458333,0,0,0.26458333,-2,-2)" id="text14" style="text-align:start;writing-mode:lr-tb;direction:ltr;white-space:pre;shape-inside:url(#rect14);display:inline;fill:none;stroke:#ff0000"/>
  <text xml:space="preserve" transform="matrix(0.26458333,0,0,0.26458333,-2,-2)" id="text18" style="font-style:normal;font-variant:normal;font-weight:normal;font-stretch:normal;font-size:66.6667px;font-family:Sans;-inkscape-font-specification:'Sans, Normal';font-variant-ligatures:normal;font-variant-caps:normal;font-variant-numeric:normal;font-variant-east-asian:normal;text-align:start;writing-mode:lr-tb;direction:ltr;white-space:pre;shape-inside:url(#rect18);display:inline;fill:none;stroke:#ff0000"/>
  <text xml:space="preserve" transform="matrix(0.26458333,0,0,0.26458333,-2,-2)" id="text19" style="font-style:normal;font-variant:normal;font-weight:normal;font-stretch:normal;font-size:66.6667px;font-family:Sans;-inkscape-font-specification:'Sans, Normal';font-variant-ligatures:normal;font-variant-caps:normal;font-variant-numeric:normal;font-variant-east-asian:normal;text-align:start;writing-mode:lr-tb;direction:ltr;white-space:pre;shape-inside:url(#rect19);display:inline;fill:none;stroke:#ff0000"/>
</svg>