<?xml version='1.0' encoding='UTF-8' standalone='no'?>
<!-- Created with Inkscape (http://www.inkscape.org/) --><svg xmlns:inkscape="http://www.inkscape.org/namespaces/inkscape" xmlns:sodipodi="http://sodipodi.sourceforge.net/DTD/sodipodi-0.dtd" xmlns="http://www.w3.org/2000/svg" xmlns:svg="http://www.w3.org/2000/svg" width="297mm" height="420mm" viewBox="0 0 297 420" version="1.1" id="svg447">
  <defs id="defs444"/>
  <g id="layer1">
    <g transform="matrix(1,0,0,-1,86.9322,140.94915)" id="g10">
      <path stroke="#ff0000" stroke-width="0.25" fill="none" d="m 28.5,125 h -19 v -3 h -19 v 3 h -19 v -3 H -47 v -17.5 h -3 v -19 h 3 v -19 h -3 v -19 h 3 v -19 h -3 v -19 h 3 v -19 h -3 v -19 h 3 v -19 h -3 v -19 h 3 v -19 h -3 v -19 h 3 V -122 h 18.5 v -3 h 19 v 3 h 19 v -3 h 19 v 3 H 47 v 17.5 h 3 v 19 h -3 v 19 h 3 v 19 h -3 v 19 h 3 v 19 h -3 v 19 h 3 v 19 h -3 v 19 h 3 v 19 h -3 v 19 h 3 v 19 H 47 V 122 H 28.5 Z" id="path9"/>
      <path d="m -16.38,-3.768 h -2.82 v 7.536 h 2.82 q 0.828,0 1.374,-0.273 0.546,-0.273 0.816,-0.72 0.27,-0.447 0.27,-0.975 v 0 q 0,-0.648 -0.357,-1.125 -0.357,-0.477 -1.071,-0.651 v 0 q 0.462,-0.072 0.813,-0.327 0.351,-0.255 0.549,-0.624 0.198,-0.369 0.198,-0.789 v 0 q 0,-0.384 -0.129,-0.75 -0.129,-0.366 -0.429,-0.66 -0.3,-0.294 -0.798,-0.468 -0.498,-0.174 -1.236,-0.174 z m -1.884,3.36 v -2.544 h 1.872 q 0.858,0 1.233,0.36 0.375,0.36 0.375,0.924 v 0 q 0,0.57 -0.408,0.915 -0.408,0.345 -1.2,0.345 v 0 z m 1.86,3.372 h -1.86 V 0.396 h 1.848 q 0.702,0 1.119,0.345 0.417,0.345 0.417,0.975 v 0 q 0,0.588 -0.405,0.918 -0.405,0.33 -1.119,0.33 z m 6.738,-6.876 v 0 q -0.774,0 -1.377,0.342 -0.603,0.342 -0.951,1.014 -0.348,0.672 -0.348,1.656 v 0 q 0,0.99 0.348,1.659 0.348,0.669 0.951,1.011 0.603,0.342 1.377,0.342 v 0 q 0.768,0 1.371,-0.342 0.603,-0.342 0.948,-1.011 0.345,-0.669 0.345,-1.659 v 0 q 0,-0.984 -0.345,-1.656 -0.345,-0.672 -0.948,-1.014 -0.603,-0.342 -1.371,-0.342 z m -0.024,0.816 v 0 q 0.558,0 0.948,0.267 0.39,0.267 0.591,0.759 0.201,0.492 0.201,1.17 v 0 q 0,1.026 -0.426,1.617 -0.426,0.591 -1.266,0.591 v 0 q -0.564,0 -0.951,-0.267 -0.387,-0.267 -0.588,-0.762 -0.201,-0.495 -0.201,-1.179 v 0 q 0,-1.014 0.429,-1.605 0.429,-0.591 1.263,-0.591 z m 6.27,-0.816 v 0 q -0.468,0 -0.84,0.18 -0.372,0.18 -0.588,0.54 -0.216,0.36 -0.216,0.9 v 0 5.856 h 0.924 v -5.832 q 0,-0.888 0.828,-0.888 v 0 q 0.246,0 0.477,0.054 0.231,0.054 0.519,0.162 v 0 l 0.132,-0.672 Q -2.49,-3.744 -2.793,-3.828 -3.096,-3.912 -3.42,-3.912 Z m 1.092,5.232 h -3.66 v 0.648 h 3.66 z m 3.42,-5.232 v 0 q -0.468,0 -0.84,0.18 -0.372,0.18 -0.588,0.54 -0.216,0.36 -0.216,0.9 v 0 5.856 h 0.924 v -5.832 q 0,-0.888 0.828,-0.888 v 0 q 0.246,0 0.477,0.054 0.231,0.054 0.519,0.162 v 0 L 2.328,-3.612 Q 2.022,-3.744 1.719,-3.828 1.416,-3.912 1.092,-3.912 Z M 2.184,1.32 h -3.66 v 0.648 h 3.66 z m 3.732,-5.232 v 0 q -0.774,0 -1.377,0.342 Q 3.936,-3.228 3.588,-2.556 3.24,-1.884 3.24,-0.9 v 0 q 0,0.99 0.348,1.659 0.348,0.669 0.951,1.011 0.603,0.342 1.377,0.342 v 0 Q 6.684,2.112 7.287,1.77 7.89,1.428 8.235,0.759 8.58,0.09 8.58,-0.9 v 0 Q 8.58,-1.884 8.235,-2.556 7.89,-3.228 7.287,-3.57 6.684,-3.912 5.916,-3.912 Z m -0.024,0.816 v 0 q 0.558,0 0.948,0.267 0.39,0.267 0.591,0.759 0.201,0.492 0.201,1.17 v 0 q 0,1.026 -0.426,1.617 Q 6.78,1.308 5.94,1.308 v 0 Q 5.376,1.308 4.989,1.041 4.602,0.774 4.401,0.279 4.2,-0.216 4.2,-0.9 v 0 q 0,-1.014 0.429,-1.605 0.429,-0.591 1.263,-0.591 z m 13.506,-0.672 h -0.936 v 3.372 q 0,0.822 -0.393,1.251 -0.393,0.429 -1.059,0.429 v 0 q -0.78,0 -1.194,-0.603 -0.414,-0.603 -0.414,-1.665 v 0 H 14.97 q 0,0.774 0.153,1.356 0.153,0.582 0.447,0.969 0.294,0.387 0.714,0.579 0.42,0.192 0.954,0.192 v 0 q 0.678,0 1.161,-0.303 0.483,-0.303 0.741,-0.867 0.258,-0.564 0.258,-1.338 v 0 z m -8.064,0 h -0.936 v 5.736 h 0.804 L 11.31,0.816 q 0.27,0.624 0.759,0.96 0.489,0.336 1.173,0.336 v 0 q 0.678,0 1.161,-0.303 0.483,-0.303 0.741,-0.867 0.258,-0.564 0.258,-1.338 v 0 -3.372 h -0.924 v 3.372 q 0,0.822 -0.393,1.251 -0.393,0.429 -1.071,0.429 v 0 Q 12.498,1.284 12.12,1.002 11.742,0.72 11.538,0.195 11.334,-0.33 11.334,-1.056 v 0 z" stroke="none" stroke-width="0.5" fill="#000000" id="path10"/>
    </g>
    <g transform="matrix(1,0,0,-1,189.9322,140.94915)" id="g12">
      <path stroke="#ff0000" stroke-width="0.25" fill="none" d="m 28.5,125 h -19 v -3 h -19 v 3 h -19 v -3 H -47 v -17.5 h -3 v -19 h 3 v -19 h -3 v -19 h 3 v -19 h -3 v -19 h 3 v -19 h -3 v -19 h 3 v -19 h -3 v -19 h 3 v -19 h -3 v -19 h 3 V -122 h 18.5 v -3 h 19 v 3 h 19 v -3 h 19 v 3 H 47 v 17.5 h 3 v 19 h -3 v 19 h 3 v 19 h -3 v 19 h 3 v 19 h -3 v 19 h 3 v 19 h -3 v 19 h 3 v 19 h -3 v 19 h 3 v 19 H 47 V 122 H 28.5 Z" id="path11"/>
      <path d="m -7.047,2.964 h -2.67 v 0.804 h 5.868 V 2.964 h -2.682 l 0.21,0.216 V -3.768 H -7.257 V 3.18 Z m 6.552,-6.876 v 0 q -0.774,0 -1.377,0.342 -0.603,0.342 -0.951,1.014 -0.348,0.672 -0.348,1.656 v 0 q 0,0.99 0.348,1.659 0.348,0.669 0.951,1.011 0.603,0.342 1.377,0.342 v 0 Q 0.273,2.112 0.876,1.77 1.479,1.428 1.824,0.759 2.169,0.09 2.169,-0.9 v 0 q 0,-0.984 -0.345,-1.656 Q 1.479,-3.228 0.876,-3.57 0.273,-3.912 -0.495,-3.912 Z m -0.024,0.816 v 0 q 0.558,0 0.948,0.267 0.39,0.267 0.591,0.759 0.201,0.492 0.201,1.17 v 0 q 0,1.026 -0.426,1.617 -0.426,0.591 -1.266,0.591 v 0 q -0.564,0 -0.951,-0.267 Q -1.809,0.774 -2.01,0.279 -2.211,-0.216 -2.211,-0.9 v 0 q 0,-1.014 0.429,-1.605 0.429,-0.591 1.263,-0.591 z m 7.11,-0.816 v 0 q -0.63,0 -1.095,0.288 -0.465,0.288 -0.717,0.843 -0.252,0.555 -0.252,1.353 v 0 h 0.396 q 0,-0.534 0.222,-0.9 0.222,-0.366 0.579,-0.555 0.357,-0.189 0.759,-0.189 v 0 q 0.432,0 0.828,0.249 0.396,0.249 0.648,0.735 0.252,0.486 0.252,1.2 v 0 q 0,0.684 -0.231,1.17 Q 7.749,0.768 7.359,1.026 6.969,1.284 6.495,1.284 v 0 Q 6.087,1.284 5.727,1.086 5.367,0.888 5.145,0.507 4.923,0.126 4.923,-0.432 v 0 H 4.527 q 0,0.834 0.276,1.401 0.276,0.567 0.75,0.855 0.474,0.288 1.062,0.288 v 0 q 0.672,0 1.254,-0.36 0.582,-0.36 0.942,-1.032 0.36,-0.672 0.36,-1.608 v 0 q 0,-0.948 -0.363,-1.626 Q 8.445,-3.192 7.857,-3.552 7.269,-3.912 6.591,-3.912 Z M 4.923,-6.588 H 3.987 v 8.556 h 0.78 L 4.923,0.624 Z" stroke="none" stroke-width="0.5" fill="#000000" id="path12"/>
    </g>
    <g transform="matrix(1,0,0,-1,145.98305,339.78813)" id="g6">
      <path stroke="#ff0000" stroke-width="0.25" fill="none" d="m 125,60 h -3 -17.5 v -3 h -19 v 3 h -19 v -3 h -19 v 3 h -19 v -3 h -19 v 3 h -19 v -3 h -19 v 3 h -19 v -3 h -19 v 3 h -19 v -3 h -19 v 3 h -17.5 -3 v -3 -9.5 h 3 v -19 h -3 v -19 h 3 v -19 h -3 v -19 h 3 v -19 h -3 v -9.5 -3 h 3 17.5 v 3 h 19 v -3 h 19 v 3 h 19 v -3 h 19 v 3 h 19 v -3 h 19 v 3 h 19 v -3 h 19 v 3 h 19 v -3 h 19 v 3 h 19 v -3 h 17.5 3 v 3 9.5 h -3 v 19 h 3 v 19 h -3 v 19 h 3 v 19 h -3 v 19 h 3 V 57 Z" id="path5"/>
      <path d="m -8.985,3.402 h 0.936 v -6.72 h 3.36 v -0.816 h -4.296 z m 7.602,-7.68 v 0 q -0.744,0 -1.329,0.381 -0.585,0.381 -0.924,1.059 -0.339,0.678 -0.339,1.56 v 0 q 0,0.942 0.336,1.62 0.336,0.678 0.921,1.041 0.585,0.363 1.335,0.363 v 0 q 0.654,0 1.116,-0.264 Q 0.195,1.218 0.477,0.768 0.759,0.318 0.87,-0.249 0.981,-0.816 0.933,-1.422 v 0 h -4.152 v 0.576 H 0.315 L 0.039,-1.026 Q 0.057,-0.672 0,-0.318 -0.057,0.036 -0.213,0.333 -0.369,0.63 -0.651,0.81 -0.933,0.99 -1.371,0.99 v 0 q -0.552,0 -0.924,-0.282 -0.372,-0.282 -0.558,-0.741 -0.186,-0.459 -0.186,-0.993 v 0 -0.384 q 0,-0.6 0.183,-1.074 0.183,-0.474 0.549,-0.75 0.366,-0.276 0.924,-0.276 v 0 q 0.558,0 0.918,0.27 0.36,0.27 0.438,0.798 v 0 h 0.972 q -0.09,-0.57 -0.408,-0.981 -0.318,-0.411 -0.81,-0.633 -0.492,-0.222 -1.11,-0.222 z m 5.418,0.144 H 3.099 V 2.49 q 0,0.57 0.219,0.933 0.219,0.363 0.588,0.537 0.369,0.174 0.825,0.174 v 0 q 0.246,0 0.501,-0.036 Q 5.487,4.062 5.739,3.99 v 0 L 5.559,3.246 Q 5.379,3.318 5.202,3.354 5.025,3.39 4.863,3.39 v 0 Q 4.671,3.39 4.479,3.318 4.287,3.246 4.161,3.048 4.035,2.85 4.035,2.478 v 0 z m 1.188,5.088 h -3.06 v 0.648 h 3.06 z m 3.438,-5.232 v 0 q -0.468,0 -0.84,0.18 -0.372,0.18 -0.588,0.54 -0.216,0.36 -0.216,0.9 v 0 5.856 h 0.924 v -5.832 q 0,-0.888 0.828,-0.888 v 0 q 0.246,0 0.477,0.054 0.231,0.054 0.519,0.162 v 0 L 9.897,-3.978 Q 9.591,-4.11 9.288,-4.194 8.985,-4.278 8.661,-4.278 Z m 1.092,5.232 h -3.66 v 0.648 h 3.66 z" stroke="none" stroke-width="0.5" fill="#000000" id="path6"/>
    </g>
  </g>
</svg>