<?xml version='1.0' encoding='UTF-8' standalone='no'?>
<!-- Created by Makercase v3 --><svg xmlns:inkscape="http://www.inkscape.org/namespaces/inkscape" xmlns:sodipodi="http://sodipodi.sourceforge.net/DTD/sodipodi-0.dtd" xmlns="http://www.w3.org/2000/svg" xmlns:svg="http://www.w3.org/2000/svg" width="420mm" height="297mm" viewBox="-2 -2 420 297" version="1.1" id="svg12" xml:space="preserve"><defs id="defs12"/><g transform="matrix(1,0,0,-1,150.47546,72.317507)" id="g2"><path stroke="#ff0000" stroke-width="0.25" fill="none" d="M 47,60 H 28.5 v -3 h -19 v 3 h -19 v -3 h -19 v 3 H -47 v -3 -9.5 h -3 v -19 h 3 v -19 h -3 v -19 h 3 v -19 h -3 v -19 h 3 v -9.5 -3 h 18.5 v 3 h 19 v -3 h 19 v 3 h 19 v -3 H 47 v 3 9.5 h 3 v 19 h -3 v 19 h 3 v 19 h -3 v 19 h 3 v 19 H 47 V 57 Z" id="path1"/><path d="m -12.321,-3.768 h -0.936 v 7.536 h 4.584 V 2.964 h -3.648 V 0.456 h 3.396 v -0.804 h -3.396 z m 6.288,0 H -6.969 V 1.98 h 0.936 z m 0,2.592 h -0.288 q 0,1.092 0.21,1.815 0.21,0.723 0.615,1.08 0.405,0.357 0.987,0.357 v 0 q 0.192,0 0.351,-0.027 0.159,-0.027 0.321,-0.081 v 0 l -0.06,-0.924 q -0.168,0.054 -0.366,0.093 -0.198,0.039 -0.354,0.039 v 0 q -0.51,0 -0.822,-0.291 -0.312,-0.291 -0.453,-0.819 -0.141,-0.528 -0.141,-1.242 z m 5.478,-2.736 v 0 q -0.774,0 -1.377,0.342 -0.603,0.342 -0.951,1.014 -0.348,0.672 -0.348,1.656 v 0 q 0,0.99 0.348,1.659 0.348,0.669 0.951,1.011 0.603,0.342 1.377,0.342 v 0 Q 0.213,2.112 0.816,1.77 1.419,1.428 1.764,0.759 2.109,0.09 2.109,-0.9 v 0 q 0,-0.984 -0.345,-1.656 Q 1.419,-3.228 0.816,-3.57 0.213,-3.912 -0.555,-3.912 Z m -0.024,0.816 v 0 q 0.558,0 0.948,0.267 0.39,0.267 0.591,0.759 0.201,0.492 0.201,1.17 v 0 q 0,1.026 -0.426,1.617 -0.426,0.591 -1.266,0.591 v 0 q -0.564,0 -0.951,-0.267 Q -1.869,0.774 -2.07,0.279 -2.271,-0.216 -2.271,-0.9 v 0 q 0,-1.014 0.429,-1.605 0.429,-0.591 1.263,-0.591 z m 9.51,-0.672 H 8.007 v 3.372 q 0,0.822 -0.393,1.251 -0.393,0.429 -1.071,0.429 v 0 Q 6.027,1.284 5.649,1.002 5.271,0.72 5.067,0.195 4.863,-0.33 4.863,-1.056 v 0 h -0.36 q 0,1.002 0.264,1.71 0.264,0.708 0.771,1.083 0.507,0.375 1.233,0.375 v 0 q 0.678,0 1.161,-0.303 Q 8.415,1.506 8.673,0.942 8.931,0.378 8.931,-0.396 v 0 z m -4.068,0 H 3.927 v 5.736 h 0.804 l 0.132,-1.32 z m 8.07,-0.144 v 0 q -0.468,0 -0.84,0.18 -0.372,0.18 -0.588,0.54 -0.216,0.36 -0.216,0.9 v 0 5.856 h 0.924 v -5.832 q 0,-0.888 0.828,-0.888 v 0 q 0.246,0 0.477,0.054 0.231,0.054 0.519,0.162 v 0 l 0.132,-0.672 Q 13.863,-3.744 13.56,-3.828 13.257,-3.912 12.933,-3.912 Z m 1.092,5.232 h -3.66 v 0.648 h 3.66 z" stroke="none" stroke-width="0.5" fill="#000000" id="path2"/></g><g transform="matrix(1,0,0,-1,253.47546,79.317507)" id="g4"><path stroke="#ff0000" stroke-width="0.25" fill="none" d="M 47,60 H 28.5 v -3 h -19 v 3 h -19 v -3 h -19 v 3 H -47 v -3 -9.5 h -3 v -19 h 3 v -19 h -3 v -19 h 3 v -19 h -3 v -19 h 3 v -9.5 -3 h 18.5 v 3 h 19 v -3 h 19 v 3 h 19 v -3 H 47 v 3 9.5 h 3 v 19 h -3 v 19 h 3 v 19 h -3 v 19 h 3 v 19 H 47 V 57 Z" id="path3"/><path d="m -9.477,-4.092 h -2.82 v 7.536 h 2.82 q 0.828,0 1.374,-0.273 0.546,-0.273 0.816,-0.72 0.27,-0.447 0.27,-0.975 v 0 q 0,-0.648 -0.357,-1.125 -0.357,-0.477 -1.071,-0.651 v 0 q 0.462,-0.072 0.813,-0.327 0.351,-0.255 0.549,-0.624 0.198,-0.369 0.198,-0.789 v 0 q 0,-0.384 -0.129,-0.75 -0.129,-0.366 -0.429,-0.66 -0.3,-0.294 -0.798,-0.468 -0.498,-0.174 -1.236,-0.174 z m -1.884,3.36 v -2.544 h 1.872 q 0.858,0 1.233,0.36 0.375,0.36 0.375,0.924 v 0 q 0,0.57 -0.408,0.915 -0.408,0.345 -1.2,0.345 v 0 z m 1.86,3.372 h -1.86 V 0.072 h 1.848 q 0.702,0 1.119,0.345 0.417,0.345 0.417,0.975 v 0 q 0,0.588 -0.405,0.918 -0.405,0.33 -1.119,0.33 z m 9.03,-6.732 h -0.816 l -0.12,1.26 v 2.46 q 0,0.774 -0.33,1.113 -0.33,0.339 -0.99,0.339 v 0 Q -3.099,1.08 -3.402,0.972 -3.705,0.864 -3.882,0.639 -4.059,0.414 -4.059,0.06 v 0 h -1.044 q 0,0.624 0.306,1.005 0.306,0.381 0.843,0.552 0.537,0.171 1.227,0.171 v 0 q 0.66,0 1.17,-0.222 0.51,-0.222 0.798,-0.705 0.288,-0.483 0.288,-1.257 v 0 z m -2.772,-0.144 v 0 q -0.708,0 -1.17,0.252 -0.462,0.252 -0.69,0.654 -0.228,0.402 -0.228,0.846 v 0 q 0,0.582 0.291,0.948 0.291,0.366 0.795,0.537 0.504,0.171 1.134,0.171 v 0 q 0.45,0 0.903,-0.09 0.453,-0.09 0.885,-0.246 v 0 -0.588 q -0.36,0.144 -0.813,0.228 -0.453,0.084 -0.831,0.084 v 0 q -0.576,0 -0.972,-0.237 -0.396,-0.237 -0.396,-0.807 v 0 q 0,-0.42 0.303,-0.72 0.303,-0.3 0.969,-0.3 v 0 q 0.468,0 0.843,0.219 0.375,0.219 0.594,0.549 0.219,0.33 0.219,0.66 v 0 h 0.228 q 0,-0.576 -0.249,-1.068 -0.249,-0.492 -0.711,-0.792 -0.462,-0.3 -1.104,-0.3 z m 7.026,0 v 0 q -0.69,0 -1.287,0.372 -0.597,0.372 -0.963,1.05 -0.366,0.678 -0.366,1.602 v 0 q 0,0.948 0.366,1.62 0.366,0.672 0.963,1.026 0.597,0.354 1.287,0.354 v 0 q 0.486,0 0.873,-0.147 Q 5.043,1.494 5.331,1.236 5.619,0.978 5.808,0.651 5.997,0.324 6.087,-0.036 v 0 L 5.127,-0.12 Q 4.977,0.378 4.626,0.669 4.275,0.96 3.771,0.96 v 0 Q 3.345,0.96 2.97,0.717 2.595,0.474 2.361,-0.009 2.127,-0.492 2.127,-1.212 v 0 q 0,-0.666 0.213,-1.155 0.213,-0.489 0.585,-0.759 0.372,-0.27 0.846,-0.27 v 0 q 0.666,0 1.011,0.327 0.345,0.327 0.345,0.909 v 0 h 0.96 q 0,-0.6 -0.282,-1.068 -0.282,-0.468 -0.801,-0.738 -0.519,-0.27 -1.221,-0.27 z m 5.112,0.144 H 7.959 V 4.092 H 8.895 Z M 8.751,-1.8 v 0.996 l 2.928,2.448 h 1.308 z m 4.368,-2.292 h -1.152 l -2.724,3.624 0.948,0.168 z" stroke="none" stroke-width="0.5" fill="#000000" id="path4"/></g><g transform="matrix(1,0,0,-1,225.47546,202.31751)" id="g8"><path stroke="#ff0000" stroke-width="0.25" fill="none" d="m 125,60 h -3 -17.5 v -3 h -19 v 3 h -19 v -3 h -19 v 3 h -19 v -3 h -19 v 3 h -19 v -3 h -19 v 3 h -19 v -3 h -19 v 3 h -19 v -3 h -19 v 3 h -17.5 -3 v -3 -9.5 h 3 v -19 h -3 v -19 h 3 v -19 h -3 v -19 h 3 v -19 h -3 v -9.5 -3 h 3 17.5 v 3 h 19 v -3 h 19 v 3 h 19 v -3 h 19 v 3 h 19 v -3 h 19 v 3 h 19 v -3 h 19 v 3 h 19 v -3 h 19 v 3 h 19 v -3 h 17.5 3 v 3 9.5 h -3 v 19 h 3 v 19 h -3 v 19 h 3 v 19 h -3 v 19 h 3 V 57 Z" id="path7"/><path d="m -12.579,-4.134 h -0.936 v 7.536 h 2.628 q 1.29,0 1.953,-0.615 0.663,-0.615 0.663,-1.617 v 0 q 0,-0.99 -0.663,-1.605 -0.663,-0.615 -1.953,-0.615 v 0 h -1.692 z m 4.5,0 h -1.212 l -2.16,3.42 h 1.02 z m -4.5,6.732 V -0.39 h 1.62 q 0.846,0 1.287,0.417 0.441,0.417 0.441,1.083 v 0 q 0,0.684 -0.423,1.086 -0.423,0.402 -1.233,0.402 v 0 z m 6.942,0.36 v 0 q -0.288,0 -0.456,0.165 -0.168,0.165 -0.168,0.435 v 0 q 0,0.264 0.168,0.42 0.168,0.156 0.456,0.156 v 0 q 0.288,0 0.456,-0.156 0.168,-0.156 0.168,-0.42 v 0 q 0,-0.27 -0.168,-0.435 -0.168,-0.165 -0.456,-0.165 z m 0.468,-7.092 h -0.936 v 5.748 h 0.936 z m 4.608,-2.952 v 0 q -0.882,0 -1.53,0.249 -0.648,0.249 -1.005,0.666 -0.357,0.417 -0.357,0.921 v 0 q 0,0.666 0.489,1.017 0.489,0.351 1.263,0.351 v 0 l 0.516,-0.324 q -0.648,0 -1.002,-0.27 -0.354,-0.27 -0.354,-0.738 v 0 q 0,-0.468 0.504,-0.792 0.504,-0.324 1.476,-0.324 v 0 q 0.72,0 1.263,0.207 0.543,0.207 0.846,0.54 0.303,0.333 0.303,0.717 v 0 q 0,0.27 -0.198,0.465 -0.198,0.195 -0.606,0.195 v 0 h -2.232 q -0.582,0 -1.005,0.177 -0.423,0.177 -0.651,0.465 -0.228,0.288 -0.228,0.63 v 0 q 0,0.36 0.204,0.612 0.204,0.252 0.531,0.384 0.327,0.132 0.705,0.132 v 0 l 0.18,-0.348 q -0.18,0 -0.363,-0.081 -0.183,-0.081 -0.306,-0.24 -0.123,-0.159 -0.123,-0.399 v 0 q 0,-0.276 0.228,-0.462 0.228,-0.186 0.828,-0.186 v 0 h 2.232 q 0.81,0 1.275,-0.342 0.465,-0.342 0.465,-0.954 v 0 q 0,-0.564 -0.402,-1.083 Q 1.983,-6.42 1.233,-6.753 0.483,-7.086 -0.561,-7.086 Z m 0.168,4.632 v 0 q -0.66,0 -1.191,0.264 -0.531,0.264 -0.84,0.738 -0.309,0.474 -0.309,1.098 v 0 q 0,0.63 0.309,1.104 0.309,0.474 0.84,0.735 0.531,0.261 1.191,0.261 v 0 q 0.642,0 1.167,-0.261 Q 1.299,1.224 1.611,0.75 1.923,0.276 1.923,-0.354 v 0 q 0,-0.624 -0.312,-1.098 Q 1.299,-1.926 0.774,-2.19 0.249,-2.454 -0.393,-2.454 Z m 0,0.672 v 0 q 0.66,0 1.026,0.408 0.366,0.408 0.366,1.02 v 0 q 0,0.63 -0.366,1.023 -0.366,0.393 -1.026,0.393 v 0 q -0.654,0 -1.029,-0.393 -0.375,-0.393 -0.375,-1.023 v 0 q 0,-0.612 0.375,-1.02 0.375,-0.408 1.029,-0.408 z m 1.884,2.616 v 0 l -0.444,0.18 q 0,0.504 0.198,0.885 0.198,0.381 0.564,0.594 0.366,0.213 0.87,0.213 v 0 L 2.607,1.782 Q 2.067,1.782 1.779,1.551 1.491,1.32 1.491,0.834 Z M 9.189,-4.134 H 8.265 v 3.372 q 0,0.822 -0.393,1.251 -0.393,0.429 -1.071,0.429 v 0 Q 6.285,0.918 5.907,0.636 5.529,0.354 5.325,-0.171 5.121,-0.696 5.121,-1.422 v 0 h -0.36 q 0,1.002 0.264,1.71 0.264,0.708 0.771,1.083 0.507,0.375 1.233,0.375 v 0 Q 7.707,1.746 8.19,1.443 8.673,1.14 8.931,0.576 9.189,0.012 9.189,-0.762 v 0 z m -4.068,0 H 4.185 V 4.05 h 0.936 z m 8.07,-0.144 v 0 q -0.468,0 -0.84,0.18 -0.372,0.18 -0.588,0.54 -0.216,0.36 -0.216,0.9 v 0 5.856 h 0.924 v -5.832 q 0,-0.888 0.828,-0.888 v 0 q 0.246,0 0.477,0.054 0.231,0.054 0.519,0.162 v 0 l 0.132,-0.672 Q 14.121,-4.11 13.818,-4.194 13.515,-4.278 13.191,-4.278 Z m 1.092,5.232 h -3.66 v 0.648 h 3.66 z" stroke="none" stroke-width="0.5" fill="#000000" id="path8"/></g><circle style="fill:none;stroke:#ff0000;stroke-width:0.302184" id="path14" cx="169.80165" cy="202.42258" r="26.4"/><circle style="fill:none;stroke:#ff0000;stroke-width:0.302184" id="path14-0" cx="279.74094" cy="202.42256" r="26.4"/></svg>