<?xml version='1.0' encoding='UTF-8' standalone='no'?>
<!-- Created with Inkscape (http://www.inkscape.org/) --><svg xmlns:inkscape="http://www.inkscape.org/namespaces/inkscape" xmlns:sodipodi="http://sodipodi.sourceforge.net/DTD/sodipodi-0.dtd" xmlns="http://www.w3.org/2000/svg" xmlns:svg="http://www.w3.org/2000/svg" width="210mm" height="297mm" viewBox="0 0 210 297" version="1.1" id="svg1" xml:space="preserve"><defs id="defs1"/><g id="layer1" transform="matrix(0.45582171,0,0,0.45610583,14.953307,-5.8626034)"><path style="fill:#ff0000;stroke:none;stroke-width:1.0431" d="m 52.08933,63.771322 -1.747119,0.822175 -0.102745,0.102777 0.102745,0.205544 -0.513862,0.102776 -1.233257,1.027719 c -1.222158,0.182635 -2.538163,1.766241 -3.551899,2.456764 -0.330872,0.225379 -0.562961,0.577703 -0.970073,0.626392 l -2.26098,2.055438 c -0.584439,0.06335 -1.581047,1.142171 -1.849896,1.644351 -0.383485,0.0781 -0.689467,0.49267 -0.997505,0.746676 -0.787655,0.649501 -1.793891,1.247339 -2.188423,2.233708 l -0.205543,-0.102776 c -1.271861,1.679075 -3.168446,3.068465 -4.615527,4.624733 -2.299513,2.472999 -4.448653,5.213064 -6.480183,7.913436 -7.04017,9.358016 -12.031767,19.983935 -15.440526,31.139885 -1.1717611,3.83485 -1.9775661,7.76894 -2.6428071,11.71599 -0.232263,1.37808 -0.906835,3.3587 -0.522028,4.72751 -0.612558,0.53516 -0.437439,2.64577 -0.499664,3.45475 -0.158579,2.06163 -0.288389,4.13198 -0.279452,6.20581 0.0049,1.13909 0.220565,2.48922 -0.04306,3.59701 0.246235,0.26313 0.07716,0.69538 0.08422,1.03534 0.01919,0.92469 0.105591,1.83981 0.121805,2.76723 0.05461,3.12332 0.528103,6.27545 0.974904,9.36604 1.392894,9.63486 4.5214661,19.08441 8.7227691,27.82976 1.091833,2.27277 2.288393,4.39939 3.530401,6.5912 0.44652,0.78801 0.997485,2.19222 1.776148,2.66589 0.012,0.57146 0.531324,1.36023 1.027714,1.64434 0.06279,0.58653 0.518514,1.24236 1.027724,1.54159 l 0.411086,1.02771 0.205543,-0.10274 c 0.25632,0.94983 1.298502,2.10018 1.916027,2.8761 1.43493,1.803 2.806971,3.66453 4.339659,5.38886 6.179082,6.95177 13.159671,13.59682 21.184402,18.41465 2.102221,1.2621 4.260488,2.41579 6.371857,3.64728 0.836795,0.48808 2.207501,1.57441 3.185928,1.53239 0.336754,0.5137 1.18977,0.78059 1.747129,1.00709 1.46181,0.59405 3.637424,2.23451 5.241366,2.07606 0.456158,0.72651 2.08961,1.02336 2.877609,1.30502 2.677303,0.95701 5.370576,1.87238 8.118976,2.61586 11.762595,3.1819 23.870467,4.03563 35.970167,2.87951 3.42481,-0.32724 6.82013,-0.77569 10.17441,-1.57091 0.80105,-0.18992 2.87236,-0.28172 3.28871,-1.01583 0.7555,0.20234 1.49256,-0.19729 2.20815,-0.40268 1.55331,-0.44584 3.12185,-0.84294 4.67748,-1.28188 0.57193,-0.16137 1.7867,-0.43646 2.15829,-0.88474 0.58976,0.0379 1.7157,-0.3185 2.05544,-0.82217 0.84224,0.11533 2.75164,-0.56431 3.2887,-1.23326 0.89853,0.0611 1.85911,-0.58778 2.67207,-0.92614 2.3494,-0.97785 4.5498,-2.25359 6.78294,-3.46134 9.40889,-5.08861 18.00879,-11.69584 25.14826,-19.6571 2.00141,-2.23178 3.94352,-4.50869 5.76593,-6.88976 0.52412,-0.68481 1.7666,-1.78812 1.76727,-2.67207 0.8379,-0.46248 1.32192,-1.66305 1.86322,-2.42292 1.25874,-1.76697 2.42186,-3.61124 3.50709,-5.49052 0.52725,-0.91306 0.90844,-2.09841 1.61818,-2.87761 l 1.13049,-2.67206 c 0.47638,-0.33434 0.6904,-1.0255 0.92781,-1.54159 0.59216,-1.2873 2.03082,-3.40313 1.9498,-4.83027 0.74397,-0.59888 1.31136,-2.68128 1.58511,-3.59703 0.68564,-2.29359 1.44392,-4.60777 2.18351,-6.88579 0.33079,-1.01886 1.00744,-2.63034 0.85612,-3.6997 l 0.31664,-1.02773 0.65929,-2.7574 1.45871,-9.37372 0.3402,-3.69574 0.10275,-2.36376 h -0.20555 v -1.02771 c 0.26812,-0.24516 0.32654,-1.81259 0.10275,-2.05544 v -0.10275 c 0.30878,-0.46742 0.11552,-1.20169 0.16588,-1.74712 0.19041,-2.06201 -0.11643,-4.11541 -0.25946,-6.16631 -0.393,-5.63531 -1.19037,-11.15573 -2.56548,-16.64905 -0.50104,-2.00153 -1.09122,-3.99638 -1.71835,-5.96077 -0.24863,-0.7788 -0.76177,-1.7546 -0.76119,-2.56929 -0.31837,-0.40258 -0.37557,-0.9631 -0.56151,-1.43881 -0.50774,-1.29895 -0.98242,-2.61896 -1.52327,-3.90533 -1.37511,-3.27056 -2.94035,-6.54173 -4.62712,-9.66057 -5.67998,-10.502268 -13.54145,-20.720455 -22.98917,-28.100335 -2.54674,-1.989336 -5.00958,-4.029468 -7.67855,-5.860456 -0.83008,-0.569461 -1.90548,-1.755277 -2.90696,-1.906587 -0.39716,-0.567792 -1.77867,-1.424367 -2.46652,-1.438806 -0.47119,-0.773248 -1.6989,-1.219802 -2.46653,-1.654111 -1.97467,-1.117217 -3.95402,-2.271494 -6.06354,-3.12566 -2.61034,-1.05695 -5.1496,-2.320121 -7.81066,-3.268076 -3.97152,-1.414782 -7.98351,-2.436015 -12.02431,-3.579804 -2.14661,-0.607623 -4.36331,-0.995928 -6.5774,-1.236674 -0.77868,-0.08467 -1.47444,-0.419192 -2.26099,-0.187705 -0.24354,-0.289271 -0.66646,-0.281318 -1.02771,-0.34693 -1.0173,-0.184756 -2.15011,-0.304765 -3.18593,-0.362788 -3.93581,-0.220447 -7.85284,-0.584854 -11.80133,-0.350832 -4.961616,0.294077 -9.892852,0.587614 -14.816595,1.41359 -8.078847,1.355267 -15.924353,4.042892 -23.431989,7.267536 -2.959231,1.271037 -5.850494,2.84719 -8.632837,4.462887 -0.926085,0.537783 -2.645227,1.268126 -3.185928,2.201829 M 106.45566,48.492572 c 0.0795,0 0.0164,0.05113 -0.0342,0.03424 l 0.0342,-0.03424 m -5.34414,0.06851 -0.10275,0.102777 0.10275,-0.102777 m 62.07422,20.040518 2.77485,2.466525 0.30831,-0.102776 c 0.18839,0.613282 1.45758,1.446459 2.05543,1.64435 l 0.82219,0.822175 -0.10275,0.205544 c 1.22462,0.392496 2.4428,2.087842 3.37402,2.947076 3.12742,2.885642 5.81725,6.191957 8.54784,9.435192 8.82605,10.483134 14.5424,23.261104 18.29307,36.331624 0.97881,3.41098 1.45206,6.79822 2.06409,10.27719 0.35948,2.04343 0.93819,4.5024 0.71075,6.5774 l 0.20555,-0.10275 c -0.49193,1.92691 0.15883,4.49671 0.23124,6.48843 0.13195,3.62901 -0.30563,7.35614 -0.62901,10.98327 -0.11934,1.33851 -0.26645,2.67911 -0.36017,4.02143 -0.0282,0.40269 -0.0404,1.2956 -0.37255,1.52777 l -0.20792,1.91929 -0.78142,3.83594 -3.07776,11.40625 -1.68812,4.52339 -1.36935,3.08323 -1.67289,3.3914 -1.27419,2.67207 -1.84989,2.98039 0.10275,0.20554 c -0.32598,0.34557 -0.95574,1.16129 -0.82217,1.64434 h -0.30832 l -0.30832,0.92495 -0.30831,0.10275 -0.30832,0.30832 c -0.81106,2.21549 -2.6656,4.16102 -4.00072,6.06607 -0.59861,0.85411 -1.22899,2.06574 -2.16559,2.56676 -0.12632,0.85713 -1.07541,1.52813 -1.60073,2.17573 -1.27212,1.56824 -2.64201,3.05818 -4.05323,4.50444 -0.6049,0.61992 -1.6931,1.415 -1.95116,2.26098 l -0.30831,-0.10274 0.10274,0.20554 -1.54159,1.13049 v 0.51386 l -0.20554,-0.20554 -0.41108,0.61663 -0.20555,-0.10275 -1.74712,1.8499 -1.33604,1.23326 -0.30831,-0.10274 c -0.60875,1.02181 -2.03465,1.82814 -2.98038,2.51688 -0.38928,0.2835 -0.76428,0.77784 -1.23327,0.87459 l -2.67207,2.15821 c -1.06913,0.27156 -2.99938,1.60689 -3.69979,2.46653 -0.76633,0.0987 -2.13586,1.06665 -2.67206,1.64435 -1.29376,0.0721 -3.08337,1.53196 -4.21365,2.17137 -2.43858,1.37955 -5.12306,2.50765 -7.7079,3.58266 -8.03856,3.34319 -16.58644,5.4539 -25.1883,6.73538 -5.70896,0.85049 -11.60657,0.96575 -17.359246,0.57181 -14.844361,-1.01653 -29.806038,-4.52206 -42.753104,-12.18274 -4.454879,-2.63592 -8.941574,-5.4492 -12.949266,-8.73275 -1.847955,-1.51407 -3.662343,-3.09544 -5.446909,-4.68421 -0.865095,-0.77021 -1.681539,-1.76147 -2.672067,-2.36345 l 0.102746,-0.20554 -1.333499,-1.21581 -3.129392,-3.29022 -1.292338,-1.76305 c -1.023353,-0.33676 -1.832673,-2.0712 -2.513306,-2.88316 -1.902509,-2.26959 -3.625741,-4.76838 -5.227806,-7.26192 -0.709819,-1.10478 -1.320272,-2.784 -2.330525,-3.62636 l -0.308319,-0.41108 -0.411085,-0.82218 c 0.06926,-0.41534 -0.35311,-1.19638 -0.616639,-1.13049 l -0.822171,-1.33604 0.102745,-0.41109 -0.513862,-0.61662 -1.438799,-3.18593 -4.213653,-10.48273 -1.027717,-3.08317 -0.411087,-1.95266 -1.0277191,-3.80255 -0.308317,-1.02773 c 0.129246,-1.16195 -0.437451,-2.53686 -0.651601,-3.69059 -0.389281,-2.09724 -0.670203,-4.2564 -0.872531,-6.38105 -0.635872,-6.67731 -0.842489,-13.55291 -0.205543,-20.24607 2.5091991,-26.3671 16.1933001,-51.28892 37.0832041,-67.564753 5.409973,-4.21504 11.124124,-8.022806 17.368451,-10.881927 7.401344,-3.3889 15.213679,-6.291629 23.226446,-7.788608 1.746837,-0.326357 3.486164,-0.648874 5.241367,-0.930104 0.774032,-0.124023 1.691271,-0.459839 2.466523,-0.293486 l 1.644413,-0.411088 c 1.75422,0.117111 3.58469,-0.21622 5.34374,-0.293725 2.913756,-0.12839 5.823086,-0.08434 8.735996,-0.04442 9.21271,0.126231 18.96613,2.035528 27.64564,5.09062 6.61569,2.328652 12.95261,5.366595 19.01272,8.880811 1.94107,1.12561 3.74968,2.474279 5.62311,3.704618 0.70137,0.460604 1.45181,1.31408 2.2904,1.469342 m -123.326362,4.213579 -0.102745,0.102766 0.102745,-0.102766 M 53.21982,144.24172 c -1.585647,0.44558 -3.252061,0.38844 -4.830281,0.9136 -1.588129,0.52846 -2.822439,1.68138 -3.812862,2.99172 -1.36209,1.80206 -1.929265,4.15341 -2.053216,6.37186 -0.270831,4.84704 1.054573,10.17444 4.040299,14.07976 1.402802,1.83484 2.988115,3.44859 5.217261,4.24465 3.007965,1.07418 6.468072,0.3509 9.352232,-0.74385 3.84549,-1.45959 7.518671,-3.1911 10.996594,-5.40661 1.405994,-0.89564 2.586752,-2.48469 4.110876,-3.13002 0.487024,2.62166 1.109817,5.04044 1.840695,7.60512 0.239371,0.83994 0.669024,2.62432 1.44801,3.08316 -0.07448,0.94128 0.998674,1.92445 1.60073,2.55186 2.585135,2.69381 5.82157,2.87711 9.190312,1.51247 7.239974,-2.93285 12.58283,-12.38143 11.83621,-20.09675 -0.26323,-2.72015 -0.89262,-6.70698 -3.614456,-8.11898 v -0.20554 c 6.228346,-2.59313 12.723146,-5.19359 18.087856,-9.40545 6.95752,-5.46239 12.29617,-12.7784 16.77244,-20.29563 2.02786,-3.40548 3.60959,-6.99654 4.73559,-10.79104 0.24115,-0.81268 1.04511,-3.24774 0.42314,-3.96354 -0.66262,-0.76255 -3.08434,-0.36075 -3.94609,-0.18841 -3.77195,0.75431 -7.27605,2.31452 -10.89382,3.57068 -2.48943,0.86438 -4.78362,2.15706 -7.19403,3.20171 -9.00779,3.90389 -17.746736,8.22927 -24.76803,15.26186 -1.99787,2.0011 -3.823367,4.23913 -5.473717,6.53371 -0.730431,1.01557 -1.674456,2.05652 -2.131407,3.22962 -0.20306,-0.68694 -0.03463,-1.35808 -0.0042,-2.05544 0.05132,-1.1713 -0.0052,-2.43057 -0.11617,-3.59701 -0.392498,-4.12139 -1.18058,-8.29901 -2.104923,-12.33263 -2.335416,-10.19113 -7.9124,-19.803531 -13.93994,-28.262272 -2.452546,-3.441791 -5.074439,-6.732299 -8.294623,-9.498634 -1.239202,-1.064552 -2.811174,-2.428274 -4.520459,-2.606958 -1.917666,-0.200476 -3.324557,1.875122 -4.282247,3.26721 -2.592196,3.768035 -4.637766,7.8209 -6.170351,12.127083 -1.992925,5.59962 -2.840933,11.467701 -3.226693,17.368461 -0.171256,2.61962 -0.300715,5.40174 0.03891,8.0162 1.167656,8.98988 5.769352,17.98996 11.686261,24.76803 m 30.112155,-4.00811 0.308319,0.10275 h 0.102745 c 0.762777,-4.50195 4.62261,-8.6386 7.703843,-11.72004 4.599961,-4.60026 9.922107,-8.37344 15.625377,-11.51696 1.49096,-0.82178 3.10454,-1.38487 4.62473,-2.14449 3.79936,-1.89849 7.6205,-3.75287 11.61323,-5.21322 3.05132,-1.11603 6.00895,-2.29694 9.1467,-3.18744 1.70495,-0.48387 3.70613,-0.98406 5.44691,-0.4409 0.14154,1.79336 -0.40897,3.35535 -0.99236,5.03583 -1.03046,2.9683 -2.4105,5.72779 -3.81255,8.53006 -1.36296,2.72416 -3.16734,5.16113 -4.97031,7.60512 -4.53474,6.14695 -9.95022,11.83009 -16.53439,15.80593 -5.13271,3.0994 -10.56249,5.09185 -16.237956,6.90666 v 0.10274 c 4.953696,0 6.551256,5.73992 6.148936,9.76333 -0.60799,6.08055 -3.248306,11.71811 -7.896056,15.80791 -2.304373,2.02776 -6.534705,3.87489 -9.557784,2.49572 -2.482838,-1.1327 -4.008882,-3.57303 -5.10688,-5.971 -1.038395,-2.26784 -1.566026,-5.02729 -1.927366,-7.48492 -0.130575,-0.8881 -0.04058,-1.82123 -0.262559,-2.68951 -0.609733,0.32301 -0.922048,0.92652 -1.3967,1.40797 -0.671537,0.68114 -1.522685,1.28493 -2.30309,1.83713 -3.857434,2.72936 -8.145971,4.91501 -12.640937,6.38152 -2.489472,0.81221 -5.25816,1.35365 -7.810667,0.57651 -2.766998,-0.84245 -4.788984,-2.85466 -6.288836,-5.27007 -3.331274,-5.36484 -4.979215,-14.18391 -0.270726,-19.31961 1.431602,-1.56149 3.887267,-2.35441 5.942934,-2.55335 0.927681,-0.0898 1.851971,0.0511 2.774833,-0.12023 -4.194366,-5.20343 -8.135405,-10.57684 -10.393913,-16.95735 -2.288748,-6.46593 -2.306241,-12.79331 -1.845139,-19.52666 0.327971,-4.78918 1.092136,-9.780399 2.803789,-14.285302 1.536569,-4.044096 3.327696,-8.412002 6.044188,-11.818767 0.757551,-0.950038 2.232817,-3.002126 3.596628,-2.966347 1.441563,0.03782 3.382406,1.779114 4.419185,2.67143 3.430524,2.952509 5.92687,6.344633 8.44728,10.058246 6.142594,9.05059 11.981709,18.9261 14.079987,29.80385 0.698021,3.61864 1.253273,7.31366 1.414536,10.99659 0.0509,1.16209 0.176149,2.44394 0.09763,3.59702 -0.07886,1.15861 -0.316289,2.55847 -0.09357,3.69979 m 68.754513,-6.88574 c 0.008,1.0395 0.36845,2.06372 0.55351,3.08316 0.36008,1.98348 0.7571,3.9605 1.017,5.96077 0.13607,1.04705 0.59092,2.60408 0.10627,3.59701 -0.47143,0.96583 -1.43966,1.57233 -2.29342,2.16084 -1.25821,0.86729 -2.48708,1.7247 -3.80255,2.50465 -0.80031,0.47451 -2.38878,1.07015 -2.46653,2.11745 2.63406,-0.74746 5.49203,-1.80387 8.22176,-2.06312 0.92292,-0.0876 1.9511,-0.46801 2.77476,0.15351 0.8081,0.60981 1.26012,1.57571 1.76774,2.42348 1.02692,1.7151 1.90909,3.49361 2.87173,5.24136 0.44219,0.80281 1.01228,2.34727 1.83523,2.77485 -0.24605,-1.32537 -0.35209,-2.68412 -0.62892,-4.00811 -0.61871,-2.95891 -2.50993,-7.17359 -0.1743,-9.76183 1.36624,-1.51399 3.52829,-2.51978 5.32518,-3.41835 0.83953,-0.41982 2.20414,-0.86648 2.67207,-1.72174 -2.59602,2.7e-4 -5.23529,0.84345 -7.81066,1.15974 -1.09837,0.1349 -2.60891,0.45889 -3.59661,-0.20426 -0.66108,-0.44386 -1.07516,-1.24521 -1.52747,-1.88043 -1.29481,-1.81847 -2.2824,-3.83238 -3.4048,-5.75523 -0.43337,-0.74245 -0.69673,-1.87015 -1.43999,-2.36375 m 1.02772,2.5693 c 0.94531,2.19378 2.31846,4.32816 3.70375,6.26909 0.67642,0.94774 1.46218,1.90699 2.6681,2.11006 0.71588,0.12055 1.54478,-0.14603 2.26098,-0.23083 2.00538,-0.23741 4.16676,-0.91281 6.16632,-0.9543 v 0.10275 c -1.8043,0.84345 -3.5854,1.8526 -5.24137,2.95731 -1.06272,0.70895 -2.18042,1.68187 -2.41879,3.00346 -0.15938,0.88371 0.10565,1.80386 0.25225,2.67207 0.2612,1.54687 0.4429,3.09648 0.80434,4.62473 0.19712,0.8335 0.62689,1.81662 0.54003,2.67207 -0.63679,-0.62824 -1.06182,-1.66937 -1.46426,-2.46652 -0.70375,-1.39398 -1.43918,-2.77923 -2.25495,-4.11088 -0.49214,-0.80335 -0.87741,-1.66207 -1.7277,-2.1471 -0.99857,-0.56961 -2.02365,-0.33407 -3.08316,-0.15639 -2.13431,0.35792 -4.15425,1.1464 -6.26908,1.58409 0.37075,-0.71536 1.38686,-1.08088 2.05544,-1.48504 1.55019,-0.93707 4.44496,-2.41072 5.13803,-4.16742 0.35243,-0.89325 0.14866,-1.96067 0.0295,-2.8776 -0.2064,-1.58844 -0.42455,-3.15382 -0.72812,-4.72752 -0.14271,-0.73973 -0.71968,-1.96477 -0.43131,-2.67207 m 49.22773,3.90534 -0.10274,0.10274 0.10274,-0.10274 m 1.02772,7.81066 -0.10275,0.10275 0.10275,-0.10275 m -82.32028,52.31089 c -2.92654,0.0607 -4.62761,2.30516 -5.26515,4.93305 -0.90668,3.73726 0.45335,8.11191 3.54745,10.49947 3.94813,3.04656 8.34479,0.41851 11.99489,-1.68487 0.69936,-0.40302 1.41271,-0.8482 2.05544,-1.33644 0.26796,-0.20357 0.65267,-0.63786 1.01248,-0.6482 0.491,-0.0141 0.41362,1.74835 0.47358,2.11119 0.31595,1.91204 0.97626,4.22939 2.73162,5.3451 1.29832,0.8252 3.26205,-0.12946 4.48858,-0.69253 3.22887,-1.48227 5.20329,-4.0458 6.83489,-7.11909 0.53292,-1.00384 1.37713,-2.41565 1.21066,-3.59701 1.45337,-1.25157 -1.5826,-3.17896 -2.46652,-3.59703 v -0.10274 c 1.29897,-0.11327 2.56553,-0.74338 3.80256,-1.12788 4.39131,-1.36492 8.53951,-3.95721 11.69816,-7.30386 1.68509,-1.7854 3.14438,-4.11597 4.50553,-6.16187 1.152,-1.73153 2.36007,-3.78899 3.04597,-5.75523 0.1839,-0.52723 0.68177,-1.59012 0.33481,-2.10856 -0.4441,-0.66357 -1.56574,-0.39886 -2.21602,-0.2973 -2.08884,0.32623 -4.13943,0.80538 -6.16632,1.40685 -8.18306,2.42826 -16.8869,6.32154 -21.89041,13.63996 -0.94582,-0.88571 -0.59699,-2.02428 -0.76341,-3.18593 -0.32374,-2.25966 -0.825,-4.60158 -1.50019,-6.78295 -1.94,-6.26758 -4.88269,-12.30971 -8.52744,-17.77953 -1.4172,-2.12684 -2.76957,-4.57721 -4.93306,-6.04127 -1.88572,-1.27607 -2.79002,-0.0579 -3.7633,1.5193 -1.29445,2.09767 -2.24075,4.40373 -3.19593,6.68017 -1.49625,3.56593 -1.9359,7.08668 -2.19666,10.89382 -0.24472,3.5731 -0.0242,7.37321 1.14778,10.79105 0.5954,1.73635 1.47442,3.38017 2.43869,4.93305 0.51583,0.83074 1.26216,1.6305 1.56132,2.5693 m 18.70449,-1.43881 c 2.15319,-2.46656 4.3618,-4.94603 6.8857,-7.04653 4.35122,-3.62125 9.35985,-5.99136 14.69639,-7.75269 2.18954,-0.72267 4.50589,-1.27608 6.78294,-1.65253 0.49261,-0.0815 2.16908,-0.60097 2.12134,0.21578 -0.0661,1.13205 -0.71781,2.04465 -1.2634,2.9784 -0.54637,0.93511 -0.9555,1.94351 -1.51564,2.87762 -1.16849,1.94858 -2.50413,3.67387 -3.91431,5.4469 -0.88562,1.11352 -1.66071,2.31355 -2.72479,3.27118 -1.85894,1.67294 -4.07454,2.88121 -6.26908,4.03704 -1.70291,0.89691 -3.59375,1.6827 -5.44691,2.20556 -0.65126,0.18374 -2.08255,0.19867 -2.49206,0.82026 -0.20561,0.3121 0.20892,0.52376 0.43305,0.63869 0.76202,0.39073 1.79226,1.12076 2.22204,1.87527 0.95254,1.67216 -0.17572,3.3554 -0.99957,4.82877 -0.35583,0.63639 -0.77099,1.48214 -1.42444,1.84989 -0.0711,0.63144 -0.8569,1.24389 -1.23296,1.74712 -1.34102,1.79447 -3.09481,2.9977 -5.24168,3.62747 -0.53836,0.15792 -1.17418,0.6058 -1.74711,0.44645 -0.81392,-0.22635 -1.46697,-1.04104 -1.91579,-1.71016 -1.14257,-1.70342 -1.96083,-4.74532 -1.47569,-6.78295 -0.94349,0.22431 -1.74544,1.21516 -2.5693,1.73087 -3.12555,1.95649 -7.0222,4.8617 -10.89381,3.71232 -5.27415,-1.56577 -7.59707,-9.85929 -3.77172,-13.85303 1.26082,-1.31633 2.97558,-1.05757 4.59389,-1.45626 -6.82527,-7.8872 -7.72425,-19.74783 -4.02752,-29.28998 0.88468,-2.2836 2.02524,-4.65835 3.24,-6.78295 0.30319,-0.5303 1.00569,-1.86267 1.71247,-1.83895 0.93838,0.0315 1.90942,1.20973 2.48397,1.83935 1.75925,1.92788 3.27649,4.08365 4.53593,6.37146 2.70444,4.91275 5.56048,9.77301 7.11868,15.21024 0.79172,2.76262 1.39008,5.68005 1.76133,8.53006 0.16644,1.27777 0.065,2.65348 0.33805,3.90533 m -60.635416,-25.17911 -0.102746,0.10275 0.102746,-0.10275 m 120.243106,1.54158 -0.10275,0.10275 0.10275,-0.10275 m -139.564219,8.83838 c -0.85554,2.50605 -0.934805,5.28493 -1.216223,7.91343 -0.165655,1.54736 -0.429934,3.40397 -1.665517,4.50001 -0.807338,0.71615 -2.259197,0.83769 -3.284574,1.05 -2.448541,0.50699 -5.015682,0.77898 -7.399581,1.54125 v 0.10275 c 2.826779,0.22311 5.900595,0.63571 8.632837,1.3952 1.152667,0.3204 2.459274,0.62629 3.044307,1.79073 0.351723,0.70006 0.367505,1.50271 0.494669,2.26098 0.273595,1.63148 0.533253,3.28317 0.665873,4.93305 0.08199,1.02056 0.09044,2.49985 0.625432,3.39147 0.476864,-0.75875 0.486397,-1.81169 0.683564,-2.67207 0.417449,-1.82165 0.925866,-3.6224 1.328262,-5.44691 0.250031,-1.13369 0.470302,-2.55147 1.384089,-3.3695 1.809631,-1.62 4.982448,-1.22956 7.189594,-1.49012 0.472587,-0.0558 2.337524,-0.0442 2.381032,-0.71576 0.04131,-0.63753 -1.74762,-0.73385 -2.175489,-0.80473 -1.690874,-0.28008 -3.295214,-0.62567 -4.933057,-1.13413 -0.751209,-0.23321 -1.639002,-0.43106 -2.251384,-0.95317 -0.96734,-0.82479 -1.360911,-2.27144 -1.642048,-3.45413 -0.481401,-2.02507 -0.958243,-4.00724 -1.303206,-6.06354 -0.143103,-0.85298 -0.109787,-2.0268 -0.55858,-2.77484 m 0,2.36376 c 0.318124,2.51723 0.852515,4.94815 1.492487,7.39957 0.28363,1.08646 0.606438,2.44086 1.591061,3.1141 1.604183,1.09685 3.987529,1.39884 5.857598,1.7728 0.679089,0.1358 2.07557,0.0425 2.466524,0.66278 -1.956886,0 -3.859208,0.20451 -5.755218,0.62122 -0.939072,0.2064 -2.062594,0.43594 -2.7704,1.13153 -0.947155,0.93081 -1.162795,2.35163 -1.444359,3.5914 -0.494481,2.17721 -0.879395,4.41944 -1.437693,6.5774 h -0.102746 c -10e-4,-2.18925 -0.440584,-4.40972 -0.703466,-6.5774 -0.147776,-1.21853 -0.203029,-2.63987 -1.077125,-3.58623 -0.582311,-0.63046 -1.529946,-0.85511 -2.330285,-1.06579 -2.089443,-0.55003 -4.726367,-0.99448 -6.885718,-1.00045 v -0.10274 l 5.652452,-1.08315 c 1.588306,-0.30465 3.210921,-0.51291 4.026499,-2.10278 0.891224,-1.73731 0.961352,-4.54083 1.102974,-6.47463 0.05935,-0.81064 -0.143301,-2.2032 0.317436,-2.87761 m -42.23924,5.13859 -0.102745,0.10274 0.102745,-0.10274 m 169.881918,7.70789 0.10274,0.10274 -0.10274,-0.10274 m -166.079361,0.51386 -0.102746,0.10274 0.102746,-0.10274 m 165.565501,0.61663 -0.10274,0.10274 0.10274,-0.10274 m -120.2431,37.82005 -0.102745,0.10275 0.102745,-0.10275 m 70.19319,2.26098 -0.10275,0.10275 0.10275,-0.10275 m -0.30831,0.10275 -0.10275,0.10274 0.10275,-0.10274 m -5.65246,1.74712 -0.10275,0.10274 0.10275,-0.10274 m -30.62602,3.49424 -0.10275,0.10275 z" id="path1"/><path d="m 101.93676,56.100285 1.13049,-0.102776 c -0.50935,2.857314 -3.348134,4.920454 -3.939664,7.810663 -0.10202,0.498291 -0.24994,1.547751 0.26335,1.872727 0.57698,0.365309 2.182624,-0.813808 2.340284,-1.358867 l -1.849904,0.308315 c 0.140174,-3.216213 3.417834,-5.456658 4.146874,-8.427219 0.30509,-1.243124 -1.9002,-1.315598 -2.09143,-0.10285 m -17.368454,3.185928 c 0.88818,-0.178144 0.64147,0.359539 0.27659,0.924947 -0.48774,0.75581 -0.95972,1.01284 -1.71539,1.438806 0.1138,0.254533 0.19828,0.441786 0.0978,0.719567 -0.23345,0.645673 -1.71768,3.995043 0.51877,3.045332 0.21933,-0.09314 0.42512,-0.224764 0.61623,-0.365974 0.31685,-0.234111 0.53885,-0.4837 0.71981,-0.829628 l -1.54158,0.411088 c 0.1275,-0.850615 0.69173,-2.241913 1.54308,-2.597286 0.75591,-0.31553 1.76996,-0.08524 2.25947,-0.896959 l -1.95266,0.102777 c 0.4029,-0.486699 1.42584,-1.768349 1.02447,-2.443053 -0.43841,-0.736966 -1.70391,-0.18029 -1.84665,0.490387 m 20.657154,1.130491 c 0.23804,0.724296 1.47891,0.683523 1.74713,0 h -1.74713 m -15.004694,1.438806 c -0.69693,-2.044172 -3.69877,-0.707635 -2.87762,1.233263 -0.79936,0.126307 -1.28719,1.469204 -0.74588,2.125542 0.3187,0.386422 1.24673,0.291906 1.67083,0.150507 1.27279,-0.424374 1.48603,-1.622271 2.19318,-2.5494 0.3155,-0.413648 0.88318,-0.536379 1.23437,-0.9186 0.23283,-0.253391 0.54839,-1.066472 -0.0429,-1.115662 -0.45273,-0.03768 -0.95716,0.890247 -1.43207,1.07435 M 118.27735,72.95487 c -0.0279,-0.364116 -0.32893,-0.922977 -0.66056,-0.381981 -0.76651,1.250424 1.01446,1.583655 1.79105,0.966259 1.31852,-1.04823 2.38001,-2.541359 3.24755,-3.97575 0.64134,-1.060424 1.03178,-2.157156 2.40491,-2.158209 -0.97907,1.375252 -0.45855,2.994347 1.43881,2.400236 0.9487,-0.297063 1.14201,-1.051029 1.79834,-1.618821 0.2959,-0.255976 0.82059,-0.186198 1.18204,-0.164784 -0.41095,0.88011 -1.05359,1.660459 -1.40217,2.569297 -0.10077,0.262789 -0.0725,1.042385 0.42013,0.788554 0.25931,-0.133621 0.34246,-0.649889 0.46627,-0.891325 0.31866,-0.621323 0.96019,-1.788497 1.64476,-2.049241 0.45944,-0.174996 0.72381,0.601653 1.03485,0.824233 0.59971,0.429153 1.1568,0.221314 1.7415,-0.111027 v -0.205544 c -0.35463,-0.104867 -0.80288,-0.04496 -1.11116,-0.267467 -0.60648,-0.437747 -0.97064,-1.418271 -1.69438,-1.725883 -0.63885,-0.271546 -1.3123,0.576699 -2.00285,0.286599 -0.57122,-0.239968 -1.81139,-1.936645 -2.28288,-0.348686 h -1.74713 c -0.0974,-1.10486 1.10664,-2.589496 1.68948,-3.494245 0.1438,-0.223207 0.52099,-0.926979 0.85485,-0.860086 0.29634,0.05937 0.14244,0.665294 0.12775,0.860086 1.27767,-0.390538 0.8052,-2.317674 -0.51386,-1.968686 -0.65699,0.173829 -0.9935,0.812979 -1.31541,1.352055 -0.64305,1.076847 -1.16403,2.683511 -2.02792,3.57727 -0.52023,0.538198 -1.04055,-0.4974 -1.52724,-0.01943 -0.59374,0.583097 0.77898,0.921585 0.634,1.479892 -0.35952,1.384485 -1.87638,3.207331 -2.85619,4.211741 -0.39962,0.409632 -0.75959,0.808939 -1.33454,0.924946 M 88.777846,61.508348 c 0.52512,-0.02688 0.83993,0.856311 0.20356,0.930981 -0.83514,0.09799 -1.09716,-0.885241 -0.20356,-0.930981 m 15.008764,1.477584 0.92494,-0.308315 c -0.50963,1.31556 -1.74609,1.845076 -1.74713,3.391472 2.42141,0.44925 2.74336,-2.345161 4.62474,-2.877613 -0.022,0.937341 -1.09248,2.184241 -0.74437,3.077135 0.22202,0.56951 0.92323,0.425464 1.361,0.237258 1.0315,-0.443467 1.82309,-1.374536 2.26098,-2.389446 0.20839,0.173829 0.58249,0.37049 0.67793,0.638122 0.2234,0.626429 -0.41881,1.338869 -0.0287,2.023158 0.66934,1.173873 2.12981,0.265975 2.53663,-0.605843 -0.51392,-0.09422 -0.76957,0.304853 -1.22168,0.288645 -0.54173,-0.01942 -0.39951,-1.002013 -0.0775,-1.210744 0.49979,-0.323947 3.25884,-0.436567 2.04505,-1.912458 -1.03582,-1.259495 -2.0089,0.545249 -2.9026,0.510611 -0.5632,-0.02183 -0.93301,-0.907836 -1.54307,-1.067526 -0.36081,1.138545 -0.83803,2.821912 -2.26099,2.980385 0.0578,-0.661807 0.35444,-1.231067 0.57143,-1.849894 0.32598,-0.929677 -0.13001,-1.873517 -1.18766,-1.293129 -1.17551,0.645059 -1.53671,2.130521 -2.87801,2.629164 0.31156,-0.658596 1.7608,-1.988909 1.33159,-2.759611 -0.38007,-0.682457 -1.85913,-0.305744 -1.74268,0.498629 m -14.490844,0.102776 c -0.27344,0.94699 -1.00079,1.542143 -1.95267,1.747122 l 0.10274,-1.747122 h 1.8499 m 23.226454,1.336035 c 0.16485,-0.346253 0.98785,-1.336148 1.31795,-0.594351 0.30388,0.682834 -0.97956,0.693409 -1.31795,0.594351 m -33.195324,1.747121 c 1.82225,-0.284404 0.0807,-1.736408 0,0 m -2.26653,0.103403 c -0.33891,0.0947 -0.81636,0.838484 -0.19436,0.72885 0.48752,-0.08594 0.79142,-0.895703 0.19436,-0.72885 m 50.466614,0.924312 v 0.205544 l -0.10274,0.102777 -0.51387,-0.51386 0.61663,0.205543 m -1.33603,0 1.33603,0.924948 c -0.19614,0.572133 -1.77124,1.784946 -2.18318,0.806945 -0.25294,-0.600499 0.39694,-1.239938 0.64161,-1.731893 h 0.20554" style="display:inline;fill:#0000ff;stroke:none;stroke-width:1.0431" id="path1-0"/><path d="m 141.50663,71.980304 c 0.26211,-0.424449 0.8535,-0.941432 0.93208,-1.439835 0.13678,-0.867465 -1.26773,-0.759424 -1.75426,-0.615603 v 0.205544 l 0.61663,0.205543 c -0.21143,0.444007 -0.79766,1.129751 -1.33604,1.147301 -0.4476,0.01459 -0.77127,-0.30134 -1.23325,-0.222354 l 0.82217,0.822175 v 0.102777 c -0.51547,0.3664 -1.77188,2.229843 -0.68824,2.711323 0.58676,0.260706 1.50154,-0.33579 2.02427,-0.553114 l -0.10274,-0.411088 -1.23327,0.205544 c 0.5333,-2.249477 2.73492,-1.314506 4.31642,-1.849894 -0.68886,1.042435 -1.57857,1.94002 -2.2713,2.980385 -0.1516,0.227686 -0.59248,1.041305 0.0178,1.041355 0.36271,2.5e-5 0.66248,-0.474504 0.91892,-0.67991 0.59064,-0.473099 1.38347,-0.91703 2.15671,-0.772533 -0.38229,0.542614 -1.10895,0.933967 -1.36617,1.543084 -0.6314,1.495235 1.54121,1.434767 2.39388,1.231757 0.0928,0.375672 0.11797,0.797762 0.43456,1.063398 0.69909,0.586585 2.66273,0.391316 2.95691,-0.549538 -0.35749,0.01635 -0.67734,0.115631 -1.02771,0.17216 -0.55904,0.0902 -1.78802,-0.360579 -0.81718,-0.90298 0.65688,-0.36699 1.54522,0.06377 2.254,-0.339805 0.58269,-0.331775 0.5299,-0.946336 -0.10233,-1.18702 -1.16898,-0.444985 -2.23933,0.320472 -3.18434,0.897736 -0.41218,0.251774 -1.23816,0.661958 -1.71255,0.329342 -0.26593,-0.18645 -0.12899,-0.493988 0.0206,-0.707272 0.32256,-0.459575 2.12216,-2.184618 0.56087,-2.361847 -0.20058,-0.02277 -0.41516,-0.01768 -0.61615,-0.0016 -0.31553,0.02525 -0.61778,0.125742 -0.92494,0.195946 0.79349,-1.874596 2.47642,-2.433393 3.9012,-3.635957 0.3529,-0.297866 0.90543,-1.004623 0.37063,-1.410403 -0.58531,-0.44412 -1.51977,0.331775 -1.89056,0.731521 -1.32596,1.429498 -2.36908,2.314965 -4.43671,2.053858 m 5.85799,-2.260982 c -0.26758,0.573413 -0.73173,0.951016 -1.33603,1.130491 0.26198,-0.56172 0.71919,-1.006028 1.33603,-1.130491 m 2.05544,6.680172 v 0.205544 l -1.74713,0.102777 c 0.50951,-0.514425 1.0945,-0.583638 1.74713,-0.308317" style="display:inline;fill:#0000ff;stroke:none;stroke-width:1.0431" id="path1-09"/><path d="m 159.41115,77.133688 v 0.205543 l 0.92494,0.205544 c -0.21625,0.768406 -1.09364,1.253424 -1.74711,1.64292 -1.41774,0.845058 -2.88966,1.541541 -4.11081,2.682696 -0.22612,0.211314 -1.68868,1.687619 -0.98202,1.978208 0.39088,0.160731 0.7574,-0.423733 0.98599,-0.641847 0.63175,-0.602782 1.94499,-1.49353 2.66803,-0.626154 -0.67623,0.291768 -1.45857,0.757202 -1.80374,1.438806 -0.48445,0.956612 0.82678,0.9569 1.39265,0.822175 0.104,0.436643 0.003,1.047001 0.28184,1.415334 0.84524,1.118473 2.24758,-0.528123 3.01606,-0.741683 0.41446,-0.11518 0.95599,0.302444 1.32684,0.45684 -0.60401,0.526016 -1.22707,1.037781 -1.8499,1.541579 -0.41436,0.335175 -0.81332,0.687524 -1.23326,1.015751 -0.47296,0.369675 -1.04766,0.755759 -1.40415,1.245156 -0.13416,0.184179 -0.25977,0.527509 0.0839,0.560954 0.70096,0.06822 1.79412,-1.195212 2.34805,-1.58511 0.63234,-0.445087 0.97084,-0.03986 1.64435,-0.01721 0.94281,0.0317 1.25299,-0.650605 2.05544,0.116496 -2.47237,0.789583 -0.50468,3.286605 1.4388,2.466526 v -0.102777 c -0.43091,-0.161659 -2.2689,-0.309181 -1.86718,-1.120894 0.51977,-1.05025 1.77485,-0.01777 2.48382,0.141475 0.37126,0.08341 0.96116,0.08375 1.08402,-0.37034 0.43811,-1.619261 -2.29352,-1.142145 -2.92345,-1.684321 -0.57336,-0.493485 -0.0486,-1.534164 -0.40506,-2.202771 -0.44086,-0.826904 -1.70705,-0.602015 -2.31824,-1.302964 -0.41485,-0.475784 -0.0713,-1.175868 -0.78586,-1.518821 -0.54793,-0.262977 -1.32589,0.07075 -1.17973,0.761832 0.10254,0.485042 0.56954,0.815337 0.97864,1.027718 -0.59334,0.6908 -1.16993,0.883685 -2.05544,0.719404 l 0.92494,-1.747122 -2.05543,0.308315 c 0.35921,-0.686585 3.06055,-2.162876 1.02771,-2.632338 -0.27134,-0.06266 -0.54992,-0.07749 -0.82217,-0.142503 1.26408,-1.074776 3.04759,-1.577295 4.19462,-2.784438 1.10466,-1.162544 -0.13217,-1.882211 -1.31701,-1.531982 m 0.30827,7.29674 -0.51386,-0.719403 c 0.38721,0.142264 0.48254,0.312819 0.51386,0.719403 m 1.23327,2.77484 c 0.23686,-0.30967 0.68543,-0.862044 1.1193,-0.859686 0.43428,0.0024 0.57299,0.832526 0.25749,1.058255 -0.29827,0.213397 -1.06019,-0.09824 -1.37679,-0.198569 m 0.92495,0.719404 v 0.102766 c -0.50579,0.160331 -0.93073,0.310738 -1.33604,-0.102766 0.48643,-0.232742 0.83567,-0.158549 1.33604,0 m 3.59701,1.747123 -1.13049,-0.308316 v -0.205544 c 0.50555,-0.109157 0.96935,-0.01738 1.13049,0.51386" style="display:inline;fill:#0000ff;stroke:none;stroke-width:1.0431" id="path1-5"/><path d="m 174.66462,98.514577 -0.82217,-0.102746 -0.10275,0.102746 0.20554,0.411084 c -2.29028,0.953498 -5.37648,3.607129 -8.0162,2.980379 l 0.41109,-0.7194 c -1.28159,-0.34882 -1.59721,1.55856 -0.20554,1.72801 1.98603,0.24181 4.29707,-1.16827 5.96077,-2.06805 0.62933,-0.34038 1.43241,-0.971621 2.1582,-1.047451 0.61966,-0.06478 1.12624,0.658391 1.74712,0.770861 -0.111,-0.38229 -0.79223,-0.888488 -0.60005,-1.295912 0.32291,-0.684585 3.41327,-1.7387 3.37489,-0.55398 0.91192,0.135906 0.81075,-1.082809 -7e-5,-1.281238 -1.07612,-0.263361 -2.0389,0.389629 -3.08308,0.447959 -0.99108,0.05539 -1.95118,-0.443974 -2.87762,-0.708295 0.43731,-1.274741 -1.03489,-1.657392 -2.05543,-1.510732 -0.9749,0.140099 -2.0845,0.672799 -2.73432,1.425792 -0.61748,0.715514 -0.28567,1.498955 0.57611,1.736666 1.46749,0.404785 2.41521,-0.661366 3.69979,-1.00441 0.56503,-0.150895 1.87703,0.390223 2.36375,0.688717 m -2.56929,-1.541576 c -0.68233,-0.4216 0.17701,-0.776713 0,0 m -1.1305,-0.513862 0.51386,0.719405 v 0.205542 c -0.52448,0.306056 -1.72018,1.044675 -2.33995,0.696958 -0.42884,-0.240591 -0.32697,-0.864573 7.9e-4,-1.138971 0.48027,-0.402084 1.2274,-0.47799 1.8253,-0.482934 m 10.79105,9.146701 c 0.17657,0.70041 0.52921,1.21333 1.23327,1.4388 0.19474,-0.73242 -0.44324,-1.6128 -1.23327,-1.4388 m -2.67207,0 0.61663,1.13049 c -0.80341,0.10149 -3.60596,0.0535 -3.28132,1.53198 0.22913,1.04351 2.04981,0.84848 2.45915,0.11237 l -1.33603,-0.20555 v -0.20555 c 0.83124,-0.20022 2.04489,-0.0897 2.77285,-0.52305 1.22961,-0.7319 -0.48661,-1.71206 -1.23128,-1.84069 m 2.77485,2.26098 v 0.10274 c 0.52905,0.51518 -0.17673,0.78635 -0.70831,0.74186 -0.40038,-0.0335 -0.43572,-0.68635 -0.82908,-0.63528 -0.39427,0.0512 -0.20806,0.64303 -0.38372,0.87816 -0.45012,0.60255 -1.57295,0.61686 -1.64127,1.58456 -0.0805,1.14048 1.77996,1.1831 2.22634,0.41109 l -1.43881,-0.10275 c 0.29186,-0.39284 0.80797,-0.84857 1.33604,-0.85628 0.51404,-0.007 0.90622,0.50138 1.43825,0.52291 0.64434,0.0261 0.47273,-0.42317 0.10338,-0.68459 -0.14463,-0.10233 -0.27395,-0.20497 -0.41109,-0.31807 0.55181,-0.13175 1.17484,-0.0888 1.57686,-0.56311 0.71052,-0.83827 -0.6563,-1.21351 -1.26854,-1.08124" style="display:inline;fill:#0000ff;stroke:none;stroke-width:1.0431" id="path1-3"/><path d="m 182.75581,117.87792 c -1.12738,1.79412 2.11002,2.36022 3.39147,2.36376 v 0.10274 c -0.61256,0.16719 -2.63912,0.59951 -2.05219,1.62246 0.46467,0.80983 1.79225,0.76252 2.56605,0.94683 -0.50316,0.22408 -1.2424,0.34867 -1.56759,0.83328 -0.58946,0.87846 1.06901,1.36659 1.67036,1.4277 -0.10862,-0.36716 -0.86945,-0.79238 -0.75684,-1.14658 0.16617,-0.52272 1.52744,-0.74697 1.99011,-0.81916 1.92924,-0.30108 4.34075,-0.653 6.26908,-0.29524 -0.31181,-0.58184 -1.04792,-0.98279 -1.64436,-1.23325 v 0.41108 c -1.88873,0 -3.74888,0.38775 -5.65245,0.30427 -0.37865,-0.0166 -1.69731,-0.11115 -1.69731,-0.67808 0,-0.5696 1.39668,-0.80936 1.80009,-0.89387 1.96156,-0.41093 4.16371,-0.32895 6.06354,-0.89053 l -1.33604,-1.02772 c -0.22051,0.76021 -0.90044,0.56909 -1.54157,0.66136 -1.50521,0.21661 -3.11524,0.30339 -4.62474,0.0859 -0.48281,-0.0696 -1.52138,-0.18999 -1.69605,-0.76184 -0.10076,-0.32996 0.33101,-0.50215 0.56563,-0.5949 0.68486,-0.27072 1.60584,-0.20596 1.84982,-1.03486 -1.13669,-0.49997 -1.82743,-1.57904 -3.18593,-1.58559 -1.87767,-0.009 -2.14054,1.47722 -0.41108,2.20222 m 2.36375,-0.82217 v 0.10274 c -1.16867,0.52139 -1.71028,0.41755 -2.87761,0 0.0543,-1.65922 2.13786,-0.5855 2.87761,-0.10274" style="display:inline;fill:#0000ff;stroke:none;stroke-width:1.0431" id="path1-8"/></g></svg>