<?xml version='1.0' encoding='UTF-8' standalone='no'?>
<!-- Created with Inkscape (http://www.inkscape.org/) --><svg xmlns:inkscape="http://www.inkscape.org/namespaces/inkscape" xmlns:sodipodi="http://sodipodi.sourceforge.net/DTD/sodipodi-0.dtd" xmlns="http://www.w3.org/2000/svg" xmlns:svg="http://www.w3.org/2000/svg" width="210mm" height="297mm" viewBox="0 0 210 297" version="1.1" id="svg5" xml:space="preserve"><defs id="defs2"/><g id="layer1"><path fill="#000000" opacity="1" stroke="none" d="m 88.924101,150.03117 c -1.659183,-3.38342 -2.827333,-10.56793 -4.204274,-14.12105 -0.201299,-0.11461 -1.293463,4.53283 -1.293463,4.53283 -0.663968,2.91648 -1.325622,5.65096 -2.105101,8.42668 -0.358412,1.27634 -0.888662,2.51206 -0.964617,3.86404 -0.02142,0.38132 -0.275566,0.60225 -0.675174,0.6393 -0.238264,0.0221 -0.48049,0.054 -0.708883,0.12213 -1.79205,0.53466 -3.646393,0.79634 -5.454476,1.27863 -1.530088,0.40812 -3.068777,0.81183 -4.616804,1.16344 -0.226722,0.0516 -1.50416,0.0879 -1.565871,0.42356 1.050467,0.55971 3.118224,1.12397 4.176762,1.66883 2.201973,1.13339 4.403981,2.26172 6.677124,3.24687 0.370372,0.16051 0.706517,0.48838 0.568157,0.88818 -0.385964,1.11527 -0.298988,2.2912 -0.462212,3.43985 -0.137647,0.96865 -0.171276,1.85481 -0.427416,2.92998 -0.162488,0.68207 -0.247089,0.66091 -0.108005,0.32435 -0.124447,0.40972 -0.130574,0.42858 -0.223433,0.72896 -0.6667,3.66581 -1.096195,5.05317 -1.477725,7.60554 -0.631565,4.63213 8.076131,-9.25439 9.220311,-10.41111 0.592282,-0.59889 1.414254,0.54577 2.539918,1.94267 0.137204,0.17027 -0.219145,-0.23099 -0.02339,-0.002 1.030826,1.20541 2.744347,2.66805 4.790647,4.12286 2.130555,1.51472 4.407477,2.82083 6.300951,4.65575 0.194071,0.18808 0.383973,0.41327 0.690906,0.41775 0.09437,-0.13121 0.04052,-0.24236 -0.0063,-0.35465 -0.780995,-1.88148 -1.500614,-3.7915 -2.355443,-5.63855 -1.688345,-3.64815 -2.868103,-7.48703 -4.295916,-11.23243 -0.133067,-0.34905 0.0408,-0.42418 0.398607,-0.59433 0.549698,-0.26143 0.773721,-0.37235 1.492586,-0.68893 4.386133,-1.9315 7.836983,-4.95672 11.895013,-7.38056 0.35779,-0.2137 1.19693,-0.62679 1.42073,-1.09186 -0.38137,-0.14623 -1.15416,0.0482 -1.51489,0.0812 -1.14159,0.10372 -2.28437,0.19444 -3.42555,0.30254 -3.44564,0.32643 -6.786503,0.72871 -10.225591,1.1296 -0.767334,0.0893 -1.653913,0.0563 -2.372393,0.22384 -0.589816,0.13753 -0.654705,0.24921 -0.851777,-0.34353 -0.247028,-0.74296 -0.512007,-1.47996 -0.813216,-2.30017 M 136.69663,130.0119 c -0.7084,-1.09153 -0.61914,-1.16178 -1.22277,-1.88824 -4.74616,-5.71204 -1.12266,-1.27271 -1.85726,-2.20725 -0.36045,-0.45858 -0.28631,-0.41995 -0.80357,-0.95795 -0.37711,-0.17007 -1.1461,-1.34304 -1.23896,-0.84131 -0.15758,0.85135 -0.72325,3.89012 -0.78863,4.75113 -0.16791,2.21132 -0.588,3.93025 -0.91144,6.11876 -0.0359,0.24302 -0.16578,0.40142 -0.37002,0.54215 -0.20995,0.1402 -0.40815,0.27435 -0.61144,0.33028 -0.26753,0.0735 -0.42965,0.21038 -0.71377,0.25549 -1.22575,0.19461 -2.57586,0.31438 -3.66279,0.59636 -3.1295,0.81189 -5.95486,1.54298 -8.95836,2.20933 -0.29796,0.066 -0.65163,0.0618 -0.85959,0.47292 0.69878,0.531 1.42229,1.02141 2.22298,1.38473 1.26429,0.57369 3.02138,1.45242 4.29758,1.99882 2.51558,1.07704 4.9629,2.31304 7.53032,3.268 0.56859,0.21148 0.8392,0.50767 0.58971,1.13426 -0.11789,0.29614 -0.19484,0.61407 -0.24951,0.92925 -0.30978,1.78569 -0.58669,3.57731 -0.91346,5.35977 -0.5306,2.89427 -0.96458,5.80293 -1.35738,8.71837 -0.0232,0.17218 -0.0904,0.36191 0.21305,0.52591 0.37789,-0.62877 0.76209,-1.25712 1.13566,-1.89175 0.94949,-1.61301 1.86716,-3.06373 3.02794,-4.67711 1.24408,-1.72923 2.22373,-2.98838 3.39219,-4.82594 0.7484,-1.17695 1.54555,-3.59507 2.90567,-2.84459 3.09913,1.96828 5.48342,3.7373 8.70665,5.47288 0.21196,0.0755 0.99242,0.31165 0.99242,0.2698 0.0495,-1.2672 0.14827,-2.76172 -0.22976,-4.12269 -0.26489,-0.88296 -0.48413,-1.62549 -1.05176,-2.42715 -0.84264,-1.19009 -1.63397,-2.43617 -2.4785,-3.63292 -0.65676,-0.93063 -1.32679,-1.69778 -2.1342,-2.68396 -0.22168,-0.27074 -0.4747,-0.50801 -0.22459,-0.73236 0.6364,-0.57088 1.20491,-1.47325 1.73684,-2.13049 0.30005,-0.37076 0.23421,-0.4745 0.60403,-0.89534 0.62523,-0.71147 0.46378,-1.44107 0.16208,-2.25886 -0.58563,-1.58739 -1.34049,-1.23637 -2.73435,-1.30483 -0.31842,-0.0156 -1.47747,-0.10052 -1.79376,-0.15567 -0.23296,-0.0406 -0.35415,-0.16888 -0.483,-0.39278 -0.36545,-0.63514 -0.53315,-1.03928 -0.83877,-1.52404 -0.31877,-0.50564 -0.69787,-1.01117 -1.07306,-2.00898 z" id="path265" style="fill:none;stroke:#ff0000;stroke-width:0.121016"/><circle style="fill:none;stroke:#ff0000;stroke-width:0.369465" id="path529" cx="107.34638" cy="154.21375" r="44.815266"/></g></svg>