<?xml version='1.0' encoding='UTF-8' standalone='no'?>
<!-- Created with Inkscape (http://www.inkscape.org/) --><svg xmlns:inkscape="http://www.inkscape.org/namespaces/inkscape" xmlns:sodipodi="http://sodipodi.sourceforge.net/DTD/sodipodi-0.dtd" xmlns="http://www.w3.org/2000/svg" xmlns:svg="http://www.w3.org/2000/svg" width="297mm" height="420mm" viewBox="0 0 297 420" version="1.1" id="svg1">
  <defs id="defs1"/>
  <g id="layer1">
    <g transform="matrix(1,0,0,-1,137.80018,198.90642)" id="g8">
      <path stroke="#ff0000" stroke-width="0.25" fill="none" d="m 75,150 h -3 -4.5 v -3 h -9 v 3 h -9 v -3 h -9 v 3 h -9 v -3 h -9 v 3 h -9 v -3 h -9 v 3 h -9 v -3 h -9 v 3 h -9 v -3 h -9 v 3 h -9 v -3 h -9 v 3 h -9 v -3 h -9 v 3 h -4.5 -3 v -3 -7.5 h 3 v -9 h -3 v -9 h 3 v -9 h -3 v -9 h 3 v -9 h -3 v -9 h 3 v -9 h -3 v -9 h 3 v -9 h -3 v -9 h 3 v -9 h -3 v -9 h 3 v -9 h -3 v -9 h 3 v -9 h -3 v -9 h 3 v -9 h -3 v -9 h 3 v -9 h -3 v -9 h 3 v -9 h -3 v -9 h 3 v -9 h -3 v -9 h 3 v -9 h -3 v -9 h 3 v -9 h -3 v -9 h 3 v -9 h -3 v -9 h 3 v -9 h -3 v -7.5 -3 h 3 4.5 v 3 h 9 v -3 h 9 v 3 h 9 v -3 h 9 v 3 h 9 v -3 h 9 v 3 h 9 v -3 h 9 v 3 h 9 v -3 h 9 v 3 h 9 v -3 h 9 v 3 h 9 v -3 h 9 v 3 h 9 v -3 h 4.5 3 v 3 7.5 h -3 v 9 h 3 v 9 h -3 v 9 h 3 v 9 h -3 v 9 h 3 v 9 h -3 v 9 h 3 v 9 h -3 v 9 h 3 v 9 h -3 v 9 h 3 v 9 h -3 v 9 h 3 v 9 h -3 v 9 h 3 v 9 h -3 v 9 h 3 v 9 h -3 v 9 h 3 v 9 h -3 v 9 h 3 v 9 h -3 v 9 h 3 v 9 h -3 v 9 h 3 v 9 h -3 v 9 h 3 v 9 h -3 v 9 h 3 v 9 h -3 v 9 h 3 v 7.5 z" id="path7"/>
      <path d="m -12.579,-4.134 h -0.936 v 7.536 h 2.628 q 1.29,0 1.953,-0.615 0.663,-0.615 0.663,-1.617 v 0 q 0,-0.99 -0.663,-1.605 -0.663,-0.615 -1.953,-0.615 v 0 h -1.692 z m 4.5,0 h -1.212 l -2.16,3.42 h 1.02 z m -4.5,6.732 V -0.39 h 1.62 q 0.846,0 1.287,0.417 0.441,0.417 0.441,1.083 v 0 q 0,0.684 -0.423,1.086 -0.423,0.402 -1.233,0.402 v 0 z m 6.942,0.36 v 0 q -0.288,0 -0.456,0.165 -0.168,0.165 -0.168,0.435 v 0 q 0,0.264 0.168,0.42 0.168,0.156 0.456,0.156 v 0 q 0.288,0 0.456,-0.156 0.168,-0.156 0.168,-0.42 v 0 q 0,-0.27 -0.168,-0.435 -0.168,-0.165 -0.456,-0.165 z m 0.468,-7.092 h -0.936 v 5.748 h 0.936 z m 4.608,-2.952 v 0 q -0.882,0 -1.53,0.249 -0.648,0.249 -1.005,0.666 -0.357,0.417 -0.357,0.921 v 0 q 0,0.666 0.489,1.017 0.489,0.351 1.263,0.351 v 0 l 0.516,-0.324 q -0.648,0 -1.002,-0.27 -0.354,-0.27 -0.354,-0.738 v 0 q 0,-0.468 0.504,-0.792 0.504,-0.324 1.476,-0.324 v 0 q 0.72,0 1.263,0.207 0.543,0.207 0.846,0.54 0.303,0.333 0.303,0.717 v 0 q 0,0.27 -0.198,0.465 -0.198,0.195 -0.606,0.195 v 0 h -2.232 q -0.582,0 -1.005,0.177 -0.423,0.177 -0.651,0.465 -0.228,0.288 -0.228,0.63 v 0 q 0,0.36 0.204,0.612 0.204,0.252 0.531,0.384 0.327,0.132 0.705,0.132 v 0 l 0.18,-0.348 q -0.18,0 -0.363,-0.081 -0.183,-0.081 -0.306,-0.24 -0.123,-0.159 -0.123,-0.399 v 0 q 0,-0.276 0.228,-0.462 0.228,-0.186 0.828,-0.186 v 0 h 2.232 q 0.81,0 1.275,-0.342 0.465,-0.342 0.465,-0.954 v 0 q 0,-0.564 -0.402,-1.083 Q 1.983,-6.42 1.233,-6.753 0.483,-7.086 -0.561,-7.086 Z m 0.168,4.632 v 0 q -0.66,0 -1.191,0.264 -0.531,0.264 -0.84,0.738 -0.309,0.474 -0.309,1.098 v 0 q 0,0.63 0.309,1.104 0.309,0.474 0.84,0.735 0.531,0.261 1.191,0.261 v 0 q 0.642,0 1.167,-0.261 Q 1.299,1.224 1.611,0.75 1.923,0.276 1.923,-0.354 v 0 q 0,-0.624 -0.312,-1.098 Q 1.299,-1.926 0.774,-2.19 0.249,-2.454 -0.393,-2.454 Z m 0,0.672 v 0 q 0.66,0 1.026,0.408 0.366,0.408 0.366,1.02 v 0 q 0,0.63 -0.366,1.023 -0.366,0.393 -1.026,0.393 v 0 q -0.654,0 -1.029,-0.393 -0.375,-0.393 -0.375,-1.023 v 0 q 0,-0.612 0.375,-1.02 0.375,-0.408 1.029,-0.408 z m 1.884,2.616 v 0 l -0.444,0.18 q 0,0.504 0.198,0.885 0.198,0.381 0.564,0.594 0.366,0.213 0.87,0.213 v 0 L 2.607,1.782 Q 2.067,1.782 1.779,1.551 1.491,1.32 1.491,0.834 Z M 9.189,-4.134 H 8.265 v 3.372 q 0,0.822 -0.393,1.251 -0.393,0.429 -1.071,0.429 v 0 Q 6.285,0.918 5.907,0.636 5.529,0.354 5.325,-0.171 5.121,-0.696 5.121,-1.422 v 0 h -0.36 q 0,1.002 0.264,1.71 0.264,0.708 0.771,1.083 0.507,0.375 1.233,0.375 v 0 Q 7.707,1.746 8.19,1.443 8.673,1.14 8.931,0.576 9.189,0.012 9.189,-0.762 v 0 z m -4.068,0 H 4.185 V 4.05 h 0.936 z m 8.07,-0.144 v 0 q -0.468,0 -0.84,0.18 -0.372,0.18 -0.588,0.54 -0.216,0.36 -0.216,0.9 v 0 5.856 h 0.924 v -5.832 q 0,-0.888 0.828,-0.888 v 0 q 0.246,0 0.477,0.054 0.231,0.054 0.519,0.162 v 0 l 0.132,-0.672 Q 14.121,-4.11 13.818,-4.194 13.515,-4.278 13.191,-4.278 Z m 1.092,5.232 h -3.66 v 0.648 h 3.66 z" stroke="none" stroke-width="0.5" fill="#000000" id="path8"/>
    </g>
  </g>
</svg>