<?xml version='1.0' encoding='UTF-8' standalone='no'?>
<!-- Created with Inkscape (http://www.inkscape.org/) --><svg xmlns:inkscape="http://www.inkscape.org/namespaces/inkscape" xmlns:sodipodi="http://sodipodi.sourceforge.net/DTD/sodipodi-0.dtd" xmlns="http://www.w3.org/2000/svg" xmlns:svg="http://www.w3.org/2000/svg" width="297mm" height="420mm" viewBox="0 0 297 420" version="1.1" id="svg1">
  <defs id="defs1"/>
  <g id="layer1">
    <g transform="matrix(1,0,0,-1,106.28969,164.85217)" id="g4">
      <path stroke="#ff0000" stroke-width="0.25" fill="none" d="m 72,150 h -4.5 v -3 h -9 v 3 h -9 v -3 h -9 v 3 h -9 v -3 h -9 v 3 h -9 v -3 h -9 v 3 h -9 v -3 h -9 v 3 h -9 v -3 h -9 v 3 h -9 v -3 h -9 v 3 h -9 v -3 h -9 v 3 H -72 v -3 -7.5 h -3 v -9 h 3 v -9 h -3 v -9 h 3 v -9 h -3 v -9 h 3 v -9 h -3 v -9 h 3 v -9 h -3 v -9 h 3 v -9 h -3 v -9 h 3 v -9 h -3 v -9 h 3 v -9 h -3 v -9 h 3 v -9 h -3 v -9 h 3 v -9 h -3 v -9 h 3 v -9 h -3 v -9 h 3 v -9 h -3 v -9 h 3 v -9 h -3 v -9 h 3 v -9 h -3 v -9 h 3 v -9 h -3 v -9 h 3 v -9 h -3 v -9 h 3 v -7.5 -3 h 4.5 v 3 h 9 v -3 h 9 v 3 h 9 v -3 h 9 v 3 h 9 v -3 h 9 v 3 h 9 v -3 h 9 v 3 h 9 v -3 h 9 v 3 h 9 v -3 h 9 v 3 h 9 v -3 h 9 v 3 h 9 v -3 H 72 v 3 7.5 h 3 v 9 h -3 v 9 h 3 v 9 h -3 v 9 h 3 v 9 h -3 v 9 h 3 v 9 h -3 v 9 h 3 v 9 h -3 v 9 h 3 v 9 h -3 v 9 h 3 v 9 h -3 v 9 h 3 v 9 h -3 v 9 h 3 v 9 h -3 v 9 h 3 v 9 h -3 v 9 h 3 v 9 h -3 v 9 h 3 v 9 h -3 v 9 h 3 v 9 h -3 v 9 h 3 v 9 h -3 v 9 h 3 v 9 h -3 v 9 h 3 v 9 h -3 v 7.5 z" id="path3"/>
      <path d="m -9.477,-4.092 h -2.82 v 7.536 h 2.82 q 0.828,0 1.374,-0.273 0.546,-0.273 0.816,-0.72 0.27,-0.447 0.27,-0.975 v 0 q 0,-0.648 -0.357,-1.125 -0.357,-0.477 -1.071,-0.651 v 0 q 0.462,-0.072 0.813,-0.327 0.351,-0.255 0.549,-0.624 0.198,-0.369 0.198,-0.789 v 0 q 0,-0.384 -0.129,-0.75 -0.129,-0.366 -0.429,-0.66 -0.3,-0.294 -0.798,-0.468 -0.498,-0.174 -1.236,-0.174 z m -1.884,3.36 v -2.544 h 1.872 q 0.858,0 1.233,0.36 0.375,0.36 0.375,0.924 v 0 q 0,0.57 -0.408,0.915 -0.408,0.345 -1.2,0.345 v 0 z m 1.86,3.372 h -1.86 V 0.072 h 1.848 q 0.702,0 1.119,0.345 0.417,0.345 0.417,0.975 v 0 q 0,0.588 -0.405,0.918 -0.405,0.33 -1.119,0.33 z m 9.03,-6.732 h -0.816 l -0.12,1.26 v 2.46 q 0,0.774 -0.33,1.113 -0.33,0.339 -0.99,0.339 v 0 Q -3.099,1.08 -3.402,0.972 -3.705,0.864 -3.882,0.639 -4.059,0.414 -4.059,0.06 v 0 h -1.044 q 0,0.624 0.306,1.005 0.306,0.381 0.843,0.552 0.537,0.171 1.227,0.171 v 0 q 0.66,0 1.17,-0.222 0.51,-0.222 0.798,-0.705 0.288,-0.483 0.288,-1.257 v 0 z m -2.772,-0.144 v 0 q -0.708,0 -1.17,0.252 -0.462,0.252 -0.69,0.654 -0.228,0.402 -0.228,0.846 v 0 q 0,0.582 0.291,0.948 0.291,0.366 0.795,0.537 0.504,0.171 1.134,0.171 v 0 q 0.45,0 0.903,-0.09 0.453,-0.09 0.885,-0.246 v 0 -0.588 q -0.36,0.144 -0.813,0.228 -0.453,0.084 -0.831,0.084 v 0 q -0.576,0 -0.972,-0.237 -0.396,-0.237 -0.396,-0.807 v 0 q 0,-0.42 0.303,-0.72 0.303,-0.3 0.969,-0.3 v 0 q 0.468,0 0.843,0.219 0.375,0.219 0.594,0.549 0.219,0.33 0.219,0.66 v 0 h 0.228 q 0,-0.576 -0.249,-1.068 -0.249,-0.492 -0.711,-0.792 -0.462,-0.3 -1.104,-0.3 z m 7.026,0 v 0 q -0.69,0 -1.287,0.372 -0.597,0.372 -0.963,1.05 -0.366,0.678 -0.366,1.602 v 0 q 0,0.948 0.366,1.62 0.366,0.672 0.963,1.026 0.597,0.354 1.287,0.354 v 0 q 0.486,0 0.873,-0.147 Q 5.043,1.494 5.331,1.236 5.619,0.978 5.808,0.651 5.997,0.324 6.087,-0.036 v 0 L 5.127,-0.12 Q 4.977,0.378 4.626,0.669 4.275,0.96 3.771,0.96 v 0 Q 3.345,0.96 2.97,0.717 2.595,0.474 2.361,-0.009 2.127,-0.492 2.127,-1.212 v 0 q 0,-0.666 0.213,-1.155 0.213,-0.489 0.585,-0.759 0.372,-0.27 0.846,-0.27 v 0 q 0.666,0 1.011,0.327 0.345,0.327 0.345,0.909 v 0 h 0.96 q 0,-0.6 -0.282,-1.068 -0.282,-0.468 -0.801,-0.738 -0.519,-0.27 -1.221,-0.27 z m 5.112,0.144 H 7.959 V 4.092 H 8.895 Z M 8.751,-1.8 v 0.996 l 2.928,2.448 h 1.308 z m 4.368,-2.292 h -1.152 l -2.724,3.624 0.948,0.168 z" stroke="none" stroke-width="0.5" fill="#000000" id="path4"/>
    </g>
  </g>
</svg>