<?xml version='1.0' encoding='UTF-8' standalone='no'?>
<!-- Created with Inkscape (http://www.inkscape.org/) --><svg xmlns:inkscape="http://www.inkscape.org/namespaces/inkscape" xmlns:sodipodi="http://sodipodi.sourceforge.net/DTD/sodipodi-0.dtd" xmlns="http://www.w3.org/2000/svg" xmlns:svg="http://www.w3.org/2000/svg" width="297mm" height="420mm" viewBox="0 0 297 420" version="1.1" id="svg1">
  <defs id="defs1"/>
  <g id="layer1">
    <g transform="matrix(1,0,0,-1,151.70609,239.71084)" id="g2">
      <path stroke="#ff0000" stroke-width="0.25" fill="none" d="m 72,150 h -4.5 v -3 h -9 v 3 h -9 v -3 h -9 v 3 h -9 v -3 h -9 v 3 h -9 v -3 h -9 v 3 h -9 v -3 h -9 v 3 h -9 v -3 h -9 v 3 h -9 v -3 h -9 v 3 h -9 v -3 h -9 v 3 H -72 v -3 -7.5 h -3 v -9 h 3 v -9 h -3 v -9 h 3 v -9 h -3 v -9 h 3 v -9 h -3 v -9 h 3 v -9 h -3 v -9 h 3 v -9 h -3 v -9 h 3 v -9 h -3 v -9 h 3 v -9 h -3 v -9 h 3 v -9 h -3 v -9 h 3 v -9 h -3 v -9 h 3 v -9 h -3 v -9 h 3 v -9 h -3 v -9 h 3 v -9 h -3 v -9 h 3 v -9 h -3 v -9 h 3 v -9 h -3 v -9 h 3 v -9 h -3 v -9 h 3 v -7.5 -3 h 4.5 v 3 h 9 v -3 h 9 v 3 h 9 v -3 h 9 v 3 h 9 v -3 h 9 v 3 h 9 v -3 h 9 v 3 h 9 v -3 h 9 v 3 h 9 v -3 h 9 v 3 h 9 v -3 h 9 v 3 h 9 v -3 H 72 v 3 7.5 h 3 v 9 h -3 v 9 h 3 v 9 h -3 v 9 h 3 v 9 h -3 v 9 h 3 v 9 h -3 v 9 h 3 v 9 h -3 v 9 h 3 v 9 h -3 v 9 h 3 v 9 h -3 v 9 h 3 v 9 h -3 v 9 h 3 v 9 h -3 v 9 h 3 v 9 h -3 v 9 h 3 v 9 h -3 v 9 h 3 v 9 h -3 v 9 h 3 v 9 h -3 v 9 h 3 v 9 h -3 v 9 h 3 v 9 h -3 v 9 h 3 v 9 h -3 v 7.5 z" id="path1"/>
      <path d="m -12.321,-3.768 h -0.936 v 7.536 h 4.584 V 2.964 h -3.648 V 0.456 h 3.396 v -0.804 h -3.396 z m 6.288,0 H -6.969 V 1.98 h 0.936 z m 0,2.592 h -0.288 q 0,1.092 0.21,1.815 0.21,0.723 0.615,1.08 0.405,0.357 0.987,0.357 v 0 q 0.192,0 0.351,-0.027 0.159,-0.027 0.321,-0.081 v 0 l -0.06,-0.924 q -0.168,0.054 -0.366,0.093 -0.198,0.039 -0.354,0.039 v 0 q -0.51,0 -0.822,-0.291 -0.312,-0.291 -0.453,-0.819 -0.141,-0.528 -0.141,-1.242 z m 5.478,-2.736 v 0 q -0.774,0 -1.377,0.342 -0.603,0.342 -0.951,1.014 -0.348,0.672 -0.348,1.656 v 0 q 0,0.99 0.348,1.659 0.348,0.669 0.951,1.011 0.603,0.342 1.377,0.342 v 0 Q 0.213,2.112 0.816,1.77 1.419,1.428 1.764,0.759 2.109,0.09 2.109,-0.9 v 0 q 0,-0.984 -0.345,-1.656 Q 1.419,-3.228 0.816,-3.57 0.213,-3.912 -0.555,-3.912 Z m -0.024,0.816 v 0 q 0.558,0 0.948,0.267 0.39,0.267 0.591,0.759 0.201,0.492 0.201,1.17 v 0 q 0,1.026 -0.426,1.617 -0.426,0.591 -1.266,0.591 v 0 q -0.564,0 -0.951,-0.267 Q -1.869,0.774 -2.07,0.279 -2.271,-0.216 -2.271,-0.9 v 0 q 0,-1.014 0.429,-1.605 0.429,-0.591 1.263,-0.591 z m 9.51,-0.672 H 8.007 v 3.372 q 0,0.822 -0.393,1.251 -0.393,0.429 -1.071,0.429 v 0 Q 6.027,1.284 5.649,1.002 5.271,0.72 5.067,0.195 4.863,-0.33 4.863,-1.056 v 0 h -0.36 q 0,1.002 0.264,1.71 0.264,0.708 0.771,1.083 0.507,0.375 1.233,0.375 v 0 q 0.678,0 1.161,-0.303 Q 8.415,1.506 8.673,0.942 8.931,0.378 8.931,-0.396 v 0 z m -4.068,0 H 3.927 v 5.736 h 0.804 l 0.132,-1.32 z m 8.07,-0.144 v 0 q -0.468,0 -0.84,0.18 -0.372,0.18 -0.588,0.54 -0.216,0.36 -0.216,0.9 v 0 5.856 h 0.924 v -5.832 q 0,-0.888 0.828,-0.888 v 0 q 0.246,0 0.477,0.054 0.231,0.054 0.519,0.162 v 0 l 0.132,-0.672 Q 13.863,-3.744 13.56,-3.828 13.257,-3.912 12.933,-3.912 Z m 1.092,5.232 h -3.66 v 0.648 h 3.66 z" stroke="none" stroke-width="0.5" fill="#000000" id="path2"/>
    </g>
    <circle style="fill:none;stroke:#ff0000;stroke-width:0.171969" id="path13" cx="151.59085" cy="313.45697" r="24.914015"/>
  </g>
</svg>